<?xml version="1.0" encoding="UTF-8" standalone="no"?>
<svg
   xmlns:dc="http://purl.org/dc/elements/1.1/"
   xmlns:cc="http://creativecommons.org/ns#"
   xmlns:rdf="http://www.w3.org/1999/02/22-rdf-syntax-ns#"
   xmlns:svg="http://www.w3.org/2000/svg"
   xmlns="http://www.w3.org/2000/svg"
   xmlns:xlink="http://www.w3.org/1999/xlink"
   xmlns:sodipodi="http://sodipodi.sourceforge.net/DTD/sodipodi-0.dtd"
   xmlns:inkscape="http://www.inkscape.org/namespaces/inkscape"
   inkscape:version="1.0 (4035a4fb49, 2020-05-01)"
   sodipodi:docname="ping-pong2.svg"
   version="1.1"
   width="274"
   viewBox="0 0 260.73829 237.8999"
   height="250"
   enable-background="new 0 0 487.219 487.219"
   id="Capa_1">
  <metadata
     id="metadata22">
    <rdf:RDF>
      <cc:Work
         rdf:about="">
        <dc:format>image/svg+xml</dc:format>
        <dc:type
           rdf:resource="http://purl.org/dc/dcmitype/StillImage" />
        <dc:title />
      </cc:Work>
    </rdf:RDF>
  </metadata>
  <defs
     id="defs20">
    <linearGradient
       id="linearGradient1140"
       inkscape:collect="always">
      <stop
         id="stop1136"
         offset="0"
         style="stop-color:#ffdd55;stop-opacity:1" />
      <stop
         id="stop1138"
         offset="1"
         style="stop-color:#ffd42a;stop-opacity:1" />
    </linearGradient>
    <linearGradient
       gradientUnits="userSpaceOnUse"
       y2="340.86334"
       x2="127.73449"
       y1="298.01147"
       x1="87.993469"
       id="linearGradient1142"
       xlink:href="#linearGradient1140"
       inkscape:collect="always" />
    <linearGradient
       id="linearGradient4716">
      <stop
         id="stop4718"
         style="stop-color:#0a1314;stop-opacity:1"
         offset="0" />
      <stop
         id="stop4720"
         style="stop-color:#0a1314;stop-opacity:0"
         offset="1" />
    </linearGradient>
    <linearGradient
       id="linearGradient4698">
      <stop
         id="stop4700"
         style="stop-color:#424a4b;stop-opacity:1"
         offset="0" />
      <stop
         id="stop4702"
         style="stop-color:#424a4b;stop-opacity:0"
         offset="1" />
    </linearGradient>
    <linearGradient
       id="linearGradient4680">
      <stop
         id="stop4682"
         style="stop-color:#0e191c;stop-opacity:1"
         offset="0" />
      <stop
         id="stop4684"
         style="stop-color:#0e191c;stop-opacity:0"
         offset="1" />
    </linearGradient>
    <linearGradient
       id="linearGradient4662">
      <stop
         id="stop4664"
         style="stop-color:#f5f4f1;stop-opacity:1"
         offset="0" />
      <stop
         id="stop4666"
         style="stop-color:#f5f4f1;stop-opacity:0"
         offset="1" />
    </linearGradient>
    <linearGradient
       id="linearGradient4632">
      <stop
         id="stop4634"
         style="stop-color:#626463;stop-opacity:1"
         offset="0" />
      <stop
         id="stop4636"
         style="stop-color:#626463;stop-opacity:0"
         offset="1" />
    </linearGradient>
    <linearGradient
       id="linearGradient4622">
      <stop
         id="stop4624"
         style="stop-color:#b9b5b4;stop-opacity:1"
         offset="0" />
      <stop
         id="stop4626"
         style="stop-color:#9d9290;stop-opacity:0"
         offset="1" />
    </linearGradient>
    <linearGradient
       id="linearGradient4594">
      <stop
         id="stop4596"
         style="stop-color:#473e3e;stop-opacity:1"
         offset="0" />
      <stop
         id="stop4598"
         style="stop-color:#473e3e;stop-opacity:0"
         offset="1" />
    </linearGradient>
    <linearGradient
       id="linearGradient4584">
      <stop
         id="stop4586"
         style="stop-color:#b1aba9;stop-opacity:1"
         offset="0" />
      <stop
         id="stop4588"
         style="stop-color:#b1aba9;stop-opacity:0"
         offset="1" />
    </linearGradient>
    <linearGradient
       id="linearGradient4572">
      <stop
         id="stop4574"
         style="stop-color:#e0d8d4;stop-opacity:1"
         offset="0" />
      <stop
         id="stop4580"
         style="stop-color:#e0d8d4;stop-opacity:0.45490196"
         offset="0.67647064" />
      <stop
         id="stop4576"
         style="stop-color:#e0d8d4;stop-opacity:0"
         offset="1" />
    </linearGradient>
    <linearGradient
       id="linearGradient4562">
      <stop
         id="stop4564"
         style="stop-color:#cfcdc7;stop-opacity:1"
         offset="0" />
      <stop
         id="stop4566"
         style="stop-color:#cfcdc7;stop-opacity:0"
         offset="1" />
    </linearGradient>
    <linearGradient
       id="linearGradient4546">
      <stop
         id="stop4548"
         style="stop-color:#444544;stop-opacity:1"
         offset="0" />
      <stop
         id="stop4550"
         style="stop-color:#706062;stop-opacity:0"
         offset="1" />
    </linearGradient>
    <linearGradient
       id="linearGradient4454">
      <stop
         id="stop4456"
         style="stop-color:#bebbb6;stop-opacity:1"
         offset="0" />
      <stop
         id="stop4458"
         style="stop-color:#bebbb6;stop-opacity:0"
         offset="1" />
    </linearGradient>
    <linearGradient
       id="linearGradient4446">
      <stop
         id="stop4448"
         style="stop-color:#8f908a;stop-opacity:1"
         offset="0" />
      <stop
         id="stop4450"
         style="stop-color:#8f908a;stop-opacity:0"
         offset="1" />
    </linearGradient>
    <linearGradient
       id="linearGradient4438">
      <stop
         id="stop4440"
         style="stop-color:#ffffff;stop-opacity:1"
         offset="0" />
      <stop
         id="stop4442"
         style="stop-color:#ffffff;stop-opacity:0"
         offset="1" />
    </linearGradient>
    <linearGradient
       id="linearGradient4430">
      <stop
         id="stop4432"
         style="stop-color:#ea3231;stop-opacity:1"
         offset="0" />
      <stop
         id="stop4434"
         style="stop-color:#ea3231;stop-opacity:0"
         offset="1" />
    </linearGradient>
    <linearGradient
       id="linearGradient3971">
      <stop
         id="stop3973"
         style="stop-color:#ea1117;stop-opacity:1"
         offset="0" />
      <stop
         id="stop3975"
         style="stop-color:#d3070e;stop-opacity:1"
         offset="0.36951563" />
      <stop
         id="stop3977"
         style="stop-color:#c10914;stop-opacity:0"
         offset="1" />
    </linearGradient>
    <linearGradient
       id="linearGradient3862">
      <stop
         id="stop3864"
         style="stop-color:#ea1117;stop-opacity:1"
         offset="0" />
      <stop
         id="stop3866"
         style="stop-color:#ea1117;stop-opacity:0"
         offset="1" />
    </linearGradient>
    <linearGradient
       id="linearGradient3798">
      <stop
         id="stop3800"
         style="stop-color:#f8ee46;stop-opacity:1"
         offset="0" />
      <stop
         id="stop3802"
         style="stop-color:#d3321c;stop-opacity:0"
         offset="1" />
    </linearGradient>
    <linearGradient
       id="linearGradient3774">
      <stop
         id="stop3776"
         style="stop-color:#ea1117;stop-opacity:1"
         offset="0" />
      <stop
         id="stop3782"
         style="stop-color:#cd0d14;stop-opacity:1"
         offset="0.36951563" />
      <stop
         id="stop3778"
         style="stop-color:#c10914;stop-opacity:0"
         offset="1" />
    </linearGradient>
    <filter
       color-interpolation-filters="sRGB"
       id="filter4426">
      <feGaussianBlur
         id="feGaussianBlur4428"
         stdDeviation="0.79644532" />
    </filter>
    <filter
       x="-0.014859335"
       y="-0.10673607"
       width="1.0297188"
       height="1.2134721"
       color-interpolation-filters="sRGB"
       id="filter4487">
      <feGaussianBlur
         id="feGaussianBlur4489"
         stdDeviation="0.49337636" />
    </filter>
    <filter
       color-interpolation-filters="sRGB"
       id="filter4511">
      <feGaussianBlur
         id="feGaussianBlur4513"
         stdDeviation="0.36832783" />
    </filter>
    <radialGradient
       cx="355.6181"
       cy="263.47437"
       r="214.64285"
       fx="355.6181"
       fy="263.47437"
       id="radialGradient4735"
       xlink:href="#linearGradient4662"
       gradientUnits="userSpaceOnUse"
       gradientTransform="matrix(0.49590542,0.02361451,-0.04756507,0.99886814,191.79733,-8.0995301)" />
    <radialGradient
       cx="688.20172"
       cy="322.61343"
       r="214.64285"
       fx="688.20172"
       fy="322.61343"
       id="radialGradient4737"
       xlink:href="#linearGradient4662"
       gradientUnits="userSpaceOnUse"
       gradientTransform="matrix(0.18891652,0.20859515,-0.74120407,0.67127976,623.54686,-26.528142)" />
    <radialGradient
       cx="-50.826534"
       cy="568.55469"
       r="214.64285"
       fx="-50.826534"
       fy="568.55469"
       id="radialGradient4739"
       xlink:href="#linearGradient4662"
       gradientUnits="userSpaceOnUse"
       gradientTransform="matrix(0.24198071,-0.24251704,0.72109578,0.71950102,-205.95295,-86.121137)" />
    <radialGradient
       cx="143.2925"
       cy="560.57587"
       r="214.64285"
       fx="143.2925"
       fy="560.57587"
       id="radialGradient4741"
       xlink:href="#linearGradient4680"
       gradientUnits="userSpaceOnUse"
       gradientTransform="matrix(0.55737084,1.1227092,-1.0153425,0.5040684,651.47245,105.56632)" />
    <radialGradient
       cx="359.53653"
       cy="680.74078"
       r="214.64285"
       fx="359.53653"
       fy="680.74078"
       id="radialGradient4743"
       xlink:href="#linearGradient4698"
       gradientUnits="userSpaceOnUse"
       gradientTransform="matrix(0.59429926,-0.0196788,0.03309447,0.99945223,124.48576,7.5040537)" />
    <radialGradient
       cx="549.07318"
       cy="531.27026"
       r="214.64285"
       fx="549.07318"
       fy="531.27026"
       id="radialGradient4745"
       xlink:href="#linearGradient4716"
       gradientUnits="userSpaceOnUse"
       gradientTransform="matrix(-0.28951144,0.61897854,-1.0261698,-0.47996685,1253.2096,446.39787)" />
    <radialGradient
       cx="137.3555"
       cy="130.31177"
       r="87.547356"
       fx="137.3555"
       fy="130.31177"
       id="radialGradient4965"
       xlink:href="#linearGradient3774"
       gradientUnits="userSpaceOnUse" />
    <radialGradient
       cx="137.3555"
       cy="130.31177"
       r="87.547356"
       fx="137.3555"
       fy="130.31177"
       id="radialGradient4967"
       xlink:href="#linearGradient3971"
       gradientUnits="userSpaceOnUse" />
    <radialGradient
       cx="126.875"
       cy="125.125"
       r="44.125"
       fx="126.875"
       fy="125.125"
       id="radialGradient4969"
       xlink:href="#linearGradient3862"
       gradientUnits="userSpaceOnUse" />
    <radialGradient
       cx="493.20697"
       cy="120.2355"
       r="20.152544"
       fx="493.20697"
       fy="120.2355"
       id="radialGradient4971"
       xlink:href="#linearGradient3798"
       gradientUnits="userSpaceOnUse"
       gradientTransform="matrix(0.75621888,0,0,0.75621888,120.23455,29.311144)" />
    <linearGradient
       x1="59.75"
       y1="853.86218"
       x2="63.5"
       y2="848.86218"
       id="linearGradient4973"
       xlink:href="#linearGradient4454"
       gradientUnits="userSpaceOnUse" />
    <linearGradient
       x1="65.5"
       y1="878.36218"
       x2="89"
       y2="879.86218"
       id="linearGradient4975"
       xlink:href="#linearGradient4438"
       gradientUnits="userSpaceOnUse" />
    <linearGradient
       x1="159.09903"
       y1="895.73804"
       x2="155.03316"
       y2="895.2077"
       id="linearGradient4977"
       xlink:href="#linearGradient4430"
       gradientUnits="userSpaceOnUse" />
    <linearGradient
       x1="201.5"
       y1="859.36218"
       x2="192.5"
       y2="865.86218"
       id="linearGradient4979"
       xlink:href="#linearGradient4446"
       gradientUnits="userSpaceOnUse" />
    <radialGradient
       cx="565.67145"
       cy="446.36511"
       r="214.64285"
       fx="565.67145"
       fy="446.36511"
       id="radialGradient4981"
       xlink:href="#linearGradient4546"
       gradientUnits="userSpaceOnUse"
       gradientTransform="matrix(-0.01141222,0.7200172,-0.98807046,-0.01566569,1003.895,64.801116)" />
    <radialGradient
       cx="525.8512"
       cy="583.23352"
       r="214.64285"
       fx="525.8512"
       fy="583.23352"
       id="radialGradient4983"
       xlink:href="#linearGradient4562"
       gradientUnits="userSpaceOnUse"
       gradientTransform="matrix(-0.13019845,0.14665728,-0.25941753,-0.23030421,735.49435,657.5781)" />
    <radialGradient
       cx="338.53104"
       cy="703.86841"
       r="214.64285"
       fx="338.53104"
       fy="703.86841"
       id="radialGradient4985"
       xlink:href="#linearGradient4572"
       gradientUnits="userSpaceOnUse"
       gradientTransform="matrix(-0.27995439,0.0091529,-0.01235873,-0.37800452,464.47395,950.87477)" />
    <radialGradient
       cx="241.97748"
       cy="591.31604"
       r="214.64285"
       fx="241.97748"
       fy="591.31604"
       id="radialGradient4987"
       xlink:href="#linearGradient4584"
       gradientUnits="userSpaceOnUse"
       gradientTransform="matrix(0.0653018,0.07876991,-0.51364189,0.42581899,480.05196,325.10195)" />
    <radialGradient
       cx="148.8054"
       cy="479.24811"
       r="214.64285"
       fx="148.8054"
       fy="479.24811"
       id="radialGradient4989"
       xlink:href="#linearGradient4594"
       gradientUnits="userSpaceOnUse"
       gradientTransform="matrix(0.03414964,0.69195514,-1.3162287,0.06495088,774.52389,345.15386)" />
    <radialGradient
       cx="361.88593"
       cy="270.58835"
       r="214.64285"
       fx="361.88593"
       fy="270.58835"
       id="radialGradient4991"
       xlink:href="#linearGradient4622"
       gradientUnits="userSpaceOnUse"
       gradientTransform="matrix(0.50253939,0.0288342,-0.05728614,0.9983578,195.52495,-9.9903306)" />
    <radialGradient
       cx="113.19639"
       cy="362.84845"
       r="214.64285"
       fx="113.19639"
       fy="362.84845"
       id="radialGradient4993"
       xlink:href="#linearGradient4632"
       gradientUnits="userSpaceOnUse"
       gradientTransform="matrix(-0.08238352,0.11533689,-0.81373347,-0.58123819,490.52721,552.42839)" />
  </defs>
  <sodipodi:namedview
     inkscape:current-layer="text976"
     inkscape:window-maximized="1"
     inkscape:window-y="-9"
     inkscape:window-x="-9"
     inkscape:cy="153.51804"
     inkscape:cx="103.12351"
     inkscape:zoom="1.6210938"
     showgrid="false"
     id="namedview18"
     inkscape:window-height="1001"
     inkscape:window-width="1920"
     inkscape:pageshadow="2"
     inkscape:pageopacity="0"
     guidetolerance="10"
     gridtolerance="10"
     objecttolerance="10"
     borderopacity="1"
     bordercolor="#666666"
     pagecolor="#ffffff"
     inkscape:document-rotation="0" />
  <g
     id="XMLID_1105_"
     transform="matrix(0.95163864,0,0,0.95163864,-18.419567,51.423901)" />
  <g
     id="g1084">
    <g
       transform="matrix(0.41611942,0,0,0.42165987,45.634019,46.328029)"
       id="g1025">
      <g
         transform="translate(45.658728,-6.6412696)"
         id="g1151">
        <path
           style="fill:#1a1a1a;stroke-width:0.951639"
           fill="#ff7b79"
           d="m 314.27922,332.8788 29.53792,-29.53791 c 61.94882,-61.94882 61.94882,-162.38666 0,-224.335488 -61.94882,-61.94882 -162.38667,-61.94882 -224.33549,0 L 89.94374,108.54331 C 70.85767,127.62938 57.6613,150.37164 50.335588,174.51281 L 248.30973,372.48696 c 24.14117,-7.32572 46.88343,-20.52209 65.96949,-39.60816 z"
           id="XMLID_1106_" />
        <path
           style="fill:#ffee57;fill-opacity:1;stroke-width:0.951639"
           fill="#ffee80"
           d="m 89.94374,332.8788 c 42.86276,42.86276 104.14924,56.05913 158.36599,39.60815 L 50.335588,174.51281 C 33.88461,228.72956 47.080983,290.01604 89.94374,332.8788 Z"
           id="XMLID_1108_" />
        <path
           sodipodi:nodetypes="cccccc"
           style="fill:url(#linearGradient1142);fill-opacity:1;stroke-width:0.951639"
           fill="#ffee80"
           d="M 131.9263,256.20182 1.352663,373.12841 c -14.404003,14.40305 -14.404003,37.75626 0,52.16026 14.404002,14.40305 37.756263,14.40305 52.160267,0 L 171.46679,295.44785 Z"
           id="XMLID_1679_" />
        <path
           id="path1081"
           style="fill:#a02c2c;stroke-width:0.951638"
           d="m 232.15439,33.869197 c -5.01553,0 -10.02933,0.23906 -15.02673,0.71185 h 24.00188 l 0.37914,-0.35685 0.0688,-0.0651 c -3.13798,-0.18559 -6.28064,-0.28994 -9.42307,-0.28994 z m -30.99947,3.04995 c -3.51675,0.69737 -7.01597,1.50686 -10.48804,2.44406 h 82.97502 c -3.47206,-0.9372 -6.96943,-1.74669 -10.48618,-2.44406 z m -18.125,4.71711 c -1.35107,0.43875 -2.6975,0.89942 -4.03872,1.37536 l -26.15598,24.31226 a 1.2971327,1.2232782 0 0 0 -0.0911,0.0576 h -7.15558 l -4.03129,-3.7748 -0.24348,-0.22861 h -1.32704 c -0.75092,0.53738 -1.49976,1.07792 -2.24332,1.62998 h 2.87339 l 3.97181,3.77295 0.27135,0.22861 h 7.73175 a 1.2971327,1.2232782 0 0 0 2.04631,0.0446 l 26.93473,-24.97392 H 288.2597 c -2.31007,-0.87168 -4.6385,-1.68399 -6.97901,-2.44405 z m 107.99355,3.52576 51.4031,48.46466 v 8.118333 l -11.29281,10.63488 h -6.48649 c -0.57099,-1.54015 -2.05639,-2.65778 -3.83614,-2.65778 -2.2705,0 -4.10748,1.79125 -4.10748,4.00154 0,2.21029 1.83687,4.00342 4.10748,4.00342 1.88029,0 3.46839,-1.22585 3.95695,-2.90313 h 7.45667 l 0.37916,-0.35685 12.05111,-11.33556 0.37916,-0.35685 V 92.597017 l -0.37916,-0.35685 -46.92761,-44.21964 c -2.21703,-1.00577 -4.4521,-1.96005 -6.70394,-2.85851 z m -107.63485,1.81955 -0.37729,0.35871 -26.89012,25.38652 H 144.3433 l -5.56276,-5.24495 -0.37916,-0.3587 h -3.44768 c -1.02983,0.80047 -2.05233,1.61467 -3.06668,2.44405 h 5.45311 l 5.56276,5.2468 0.37916,0.35685 h 13.91529 l 0.37914,-0.35685 26.88827,-25.37351 h 101.46617 l 47.39784,44.71403 v 1.20065 c -1.48083,0.60723 -2.54627,2.02974 -2.54627,3.68745 0,2.210313 1.86846,4.003423 4.13908,4.003423 2.27048,0 4.10749,-1.79311 4.10749,-4.003423 0,-1.87453 -1.32005,-3.43888 -3.10756,-3.8733 v -2.02959 l -0.37916,-0.35871 -48.18588,-45.4426 -0.37915,-0.35685 H 183.39234 Z m -15.51181,0.45908 c -2.48877,1.10215 -4.95443,2.27251 -7.39534,3.50902 l -8.09603,7.64067 c -0.63552,-0.39281 -1.37281,-0.64307 -2.18199,-0.64307 -2.2705,0 -4.10749,1.79126 -4.10749,4.00155 0,2.21031 1.83687,4.00341 4.10749,4.00341 2.27049,0 4.10749,-1.7931 4.10749,-4.00341 0,-0.50636 -0.12698,-0.98337 -0.30295,-1.42925 z m 137.11955,4.10377 25.84188,24.36987 0.37916,0.35871 h 8.8785 c -0.88905,-0.82673 -1.78434,-1.64337 -2.68753,-2.44591 h -5.11485 l -18.24953,-17.21614 c -2.97221,-1.79424 -5.98855,-3.48474 -9.04763,-5.06653 z m -120.69331,1.12631 v 0.002 l -0.37915,0.35685 -26.11695,24.67283 H 140.1782 l -2.07605,-1.97383 c -0.30068,-1.92108 -1.9902,-3.38822 -4.04802,-3.38822 -2.27049,0 -4.10748,1.79312 -4.10748,4.00341 0,2.21029 1.83699,4.00342 4.10748,4.00341 1.41902,0 2.658,-0.694 3.39565,-1.75822 l 1.27314,1.17091 0.37915,0.38659 h 19.78101 l 0.37915,-0.38659 26.13182,-24.64309 h 98.64668 l 40.83515,38.51005 v 6.25974 l -4.3045,4.061043 h -37.53057 l -2.45707,-2.30281 c 0.366,-0.59842 0.5929,-1.28192 0.5929,-2.029583 0,-2.2103 -1.83887,-4.00156 -4.10935,-4.00156 -2.27049,0 -4.10749,1.79126 -4.10749,4.00156 0,2.210293 1.837,4.003413 4.10749,4.003413 0.5676,0 1.10129,-0.11359 1.59281,-0.31595 h 0.0297 l 2.89569,2.73027 0.37729,0.35871 h 39.69769 l 0.37916,-0.35871 5.04794,-4.78775 0.37914,-0.35685 v -8.291183 l -0.37914,-0.35685 -41.59346,-39.21074 -0.37916,-0.3587 z m 1.60211,5.30257 -0.37729,0.35685 -26.17829,24.68769 h -15.74785 l -1.6207,-0.85681 -0.30295,-0.18587 h -23.33277 l -2.44405,2.44405 h 25.07613 l 1.275,0.68582 v 0.35871 h 18.15845 l 0.37916,-0.35871 26.20801,-24.68768 h 94.78081 l 33.135,31.22064 0.21187,2.21544 c -1.3232,0.6643 -2.24332,1.99399 -2.24332,3.54433 0,2.2103 1.83784,3.988553 4.1075,3.988553 2.27656,0 4.10748,-1.778253 4.10748,-3.988553 0,-1.97141 -1.44941,-3.62785 -3.37892,-3.95879 l -0.24347,-2.44405 -0.0446,-0.42934 -0.33454,-0.32897 -33.86171,-31.90646 -0.36428,-0.35685 z m 3.10199,4.84721 -0.37915,0.34383 -27.81384,26.23033 h -22.44809 c -0.38265,-1.82822 -2.04641,-3.21537 -4.03315,-3.21537 -2.27051,0 -4.10748,1.821 -4.10748,4.03129 0,2.2103 1.83697,4.00155 4.10748,4.00155 1.66939,0 3.08739,-0.98228 3.7302,-2.37342 H 161.907 l 0.3773,-0.35685 27.80083,-26.21546 h 75.81759 l 3.97182,4.23016 -0.30296,23.25843 -4.36583,3.00163 c -0.3377,-0.0869 -0.69513,-0.14312 -1.06126,-0.14312 -2.2706,0 -4.13722,1.79312 -4.13722,4.00341 0,2.210313 1.86662,4.001563 4.13722,4.001563 2.2705,0 4.10749,-1.79125 4.10749,-4.001563 0,-0.88934 -0.29952,-1.70923 -0.80291,-2.37342 l 4.21343,-2.85851 0.51483,-0.35685 v -0.6152 l 0.28809,-24.3866 0.0316,-0.45721 -0.34942,-0.35871 -4.69852,-4.98846 -0.37916,-0.3996 h -78.06276 z m 1.91621,4.83233 -0.37915,0.35685 -28.86023,27.21724 h -30.90655 l -7.26152,-6.86192 -0.13567,0.12824 c -0.65851,-1.35947 -2.07317,-2.31581 -3.71348,-2.31581 -2.27048,0 -4.12235,1.821 -4.12235,4.03129 0,2.21029 1.85187,4.00341 4.12235,4.00341 1.69465,0 3.16167,-1.00615 3.78967,-2.43104 l 5.86573,5.53303 0.37915,0.35685 h 33.07552 l 0.37915,-0.35685 28.84536,-27.21724 h 67.61748 c -0.64886,0.70741 -1.06126,1.63582 -1.06126,2.65965 0,2.21031 1.83686,4.00155 4.10749,4.00155 2.27048,0 4.10749,-1.79124 4.10749,-4.00155 0,-2.2103 -1.83701,-4.00341 -4.10749,-4.00341 v -1.10029 h -71.73982 z m 3.07411,5.27469 -0.37915,0.35685 -29.80067,28.088923 h -36.5734 l -5.0944,-4.802613 -0.37916,-0.34384 h -9.80594 l -4.04429,-3.8287 -1.78796,1.78796 4.37698,4.12794 0.37915,0.35685 h 9.80594 l 5.10927,4.789613 0.37915,0.35685 h 38.7275 l 0.36243,-0.35685 29.81555,-28.088933 h 58.08475 l 5.45682,5.14644 c -0.42295,0.62909 -0.66723,1.39206 -0.66723,2.20058 0,2.21029 1.83698,4.00341 4.10749,4.00341 2.27048,0 4.13909,-1.79312 4.13909,-4.00341 0,-2.21018 -1.86861,-4.00156 -4.13909,-4.00156 -0.49738,0 -0.96777,0.0987 -1.40881,0.2565 l -6.01812,-5.68916 -0.37916,-0.35685 z m -66.07855,0.004 c -1.9175,1.67498 -3.80527,3.40273 -5.65942,5.18548 l 0.0892,0.0855 z m 67.44648,4.55541 -0.25834,0.25649 -30.04231,28.332393 h -40.36492 l -4.66692,-4.43089 -0.27321,-0.2286 h -12.94324 l -4.0759,-3.838003 -1.17649,1.17835 4.28219,4.033163 0.24162,0.25648 h 12.95997 l 4.7134,4.43089 0.24348,0.24347 h 41.77372 l 0.24348,-0.24347 30.07204,-28.360283 h 32.28562 l 43.6695,41.182713 0.24161,0.25648 h 59.79652 l 0.24347,-0.25648 17.06746,-16.08055 0.24162,-0.25834 V 91.052807 l 2.47565,-2.34369 c -0.36918,-0.42579 -0.74442,-0.84849 -1.11887,-1.27127 l -2.84179,2.6708 -0.24348,0.25834 v 12.935823 l -16.55077,15.62333 h -58.34123 l -43.66951,-41.182713 -0.24161,-0.25649 z m 5.93449,4.00341 c -2.2705,0 -4.1075,1.79126 -4.1075,4.00156 0,2.2103 1.837,4.0034 4.1075,4.0034 1.02685,0 1.9475,-0.39614 2.66708,-1.00178 l 4.65392,4.36025 0.24161,0.25835 h 18.50973 l 33.80037,31.876743 0.24348,0.22861 h 71.49821 l 0.24162,-0.22861 24.42005,-23.02984 h 4.86394 c -0.38112,-0.54705 -0.77653,-1.08669 -1.16534,-1.62998 h -4.42531 l -0.24347,0.24347 -24.38846,23.01497 h -70.10427 l -33.7725,-31.876743 -0.27321,-0.2286 h -18.47627 l -4.56284,-4.30265 c 0.24353,-0.51151 0.37914,-1.08632 0.37914,-1.68759 0,-2.2103 -1.83686,-4.00156 -4.10748,-4.00156 z m 11.31325,0.28622 c -2.07308,0.20505 -3.71346,1.92942 -3.71346,4.00156 0,2.2103 1.86674,4.00341 4.13722,4.00341 2.27063,0 4.10935,-1.79311 4.10935,-4.00341 0,-2.21029 -1.83872,-4.00156 -4.10935,-4.00156 -0.14187,0 -0.28557,-0.0137 -0.42376,0 z m 42.9874,5.24496 c -2.27061,0 -4.10749,1.79311 -4.10749,4.0034 0,2.2103 1.83688,4.00156 4.10749,4.00156 2.2705,0 4.10749,-1.79126 4.10749,-4.00156 0,-2.21029 -1.83699,-4.0034 -4.10749,-4.0034 z m 98.69129,4.25803 c -0.72798,0.72724 -1.18579,1.7147 -1.18579,2.80461 0,2.21029 1.85373,4.00156 4.12423,4.00156 0.73594,0 1.41576,-0.20363 2.01285,-0.53342 -1.59002,-2.12275 -3.241,-4.21389 -4.95129,-6.27275 z m -162.69379,0.17285 c -2.27049,0 -4.1075,1.7931 -4.1075,4.00341 0,0.52385 0.10055,1.01366 0.28808,1.472 L 160.57254,122.61544 H 99.729645 l -1.7285,-1.65785 v -4.78961 l -0.44049,-0.2286 -3.59266,-1.92922 -0.21187,-0.12824 h -7.17235 c -1.80214,1.93129 -3.53862,3.90195 -5.22628,5.89917 v 7.03664 l -11.27798,10.6646 -0.27139,0.22861 v 42.98368 l 0.27139,0.2286 22.13021,20.87014 0.24353,0.25835 h 6.3062 l 6.289475,6.11663 0.24347,0.24348 h 10.35237 l 1.80283,1.41624 0.24348,0.19888 h 14.05097 l 101.1186,95.40344 v 52.42904 l 1.72664,1.72663 v -54.79876 l -0.24348,-0.24347 -101.59998,-95.91826 -0.27322,-0.22862 h -14.1569 l -1.75823,-1.39951 -0.24348,-0.2156 h -10.29102 l -6.291335,-6.1315 -0.27322,-0.2286 h -6.27461 l -21.64521,-20.41322 v -41.61203 l 11.27798,-10.63673 0.2714,-0.24161 v -9.30598 l 2.88077,-2.70239 h 7.33587 l 2.97189,1.62998 v 4.4885 l 0.24162,0.25649 2.25818,2.12995 0.27322,0.2286 h 62.236845 l 0.24161,-0.2286 27.23954,-25.685773 c 0.73699,0.68591 1.73319,1.12817 2.83436,1.12817 2.27062,0 4.10749,-1.79126 4.10749,-4.00155 0,-2.21029 -1.83687,-4.00341 -4.10749,-4.00341 z m 109.10497,0.8438 c -2.07309,0.20504 -3.667,1.93126 -3.667,4.00341 0,2.2103 1.83699,4.001543 4.10749,4.001553 2.2705,0 4.10749,-1.791253 4.10749,-4.001553 0,-2.21029 -1.83699,-4.00341 -4.10749,-4.00341 -0.14187,0 -0.30234,-0.0137 -0.44049,0 z m -98.25823,1.10215 c -2.27049,0 -4.10749,1.79127 -4.10749,4.00155 0,2.21029 1.83688,3.988533 4.10749,3.988533 2.11056,0 3.82884,-1.537973 4.06289,-3.531323 h 6.15379 l 32.04401,30.248613 0.27136,0.22861 h 90.06555 l 0.24348,-0.22861 23.78255,-22.39976 h 5.89731 c -0.35762,-0.54603 -0.72408,-1.08744 -1.08913,-1.62999 h -5.54976 l -0.25834,0.22861 -23.73609,22.39976 h -88.64187 l -32.07375,-30.246753 -0.27321,-0.22861 h -6.97344 c -0.51453,-1.63668 -2.07477,-2.83063 -3.92535,-2.83063 z m -102.960465,7.436223 -1.77497,1.77498 4.876945,4.60001 0.37916,0.35685 h 11.23148 l 3.95694,3.71718 0.36428,0.35685 h 8.68521 l 3.80454,3.61683 c -0.48981,0.65893 -0.78804,1.46759 -0.78804,2.34368 0,2.21029 1.83701,4.00341 4.10748,4.00341 2.2705,0 4.1075,-1.79312 4.1075,-4.00341 0,-2.2103 -1.837,-4.00155 -4.1075,-4.00155 -0.4243,0 -0.82882,0.0698 -1.21366,0.18586 l -4.48664,-4.23202 -0.3773,-0.35685 h -8.64059 l -3.94207,-3.71718 -0.4089,-0.35685 h -11.21661 z m 89.275645,1.85489 -0.27321,0.22861 -25.16163,23.72865 H 97.389675 l -4.09263,-3.90304 c 0.13305,-0.39396 0.21188,-0.80587 0.21188,-1.2434 0,-2.21029 -1.83685,-4.00155 -4.10746,-4.00155 -0.14198,0 -0.27264,-0.0137 -0.41081,0 -2.07306,0.20504 -3.69668,1.9294 -3.69668,4.00155 0,2.21029 1.83697,4.00341 4.10749,4.00341 1.17617,0 2.25129,-0.48785 2.99972,-1.25827 l 4.0183,3.77295 0.27135,0.25834 h 67.362845 l 0.24162,-0.25834 25.1319,-23.69892 h 24.43492 l 29.31373,27.65958 0.27321,0.24348 h 93.70468 l 0.27321,-0.24348 24.37359,-22.98522 h 5.25982 c -0.33848,-0.54578 -0.68579,-1.08745 -1.03152,-1.62999 h -4.942 l -0.27321,0.22861 -24.37359,23.00009 h -92.26427 l -29.34532,-27.67445 -0.27322,-0.22861 z m -93.303225,2.17269 -2.44405,2.44405 h 4.36397 l 4.942005,4.63162 0.37915,0.3587 h 9.36731 l 3.86587,3.67259 c -0.42282,0.62908 -0.66723,1.37906 -0.66723,2.18757 0,2.2103 1.83712,4.00155 4.10749,4.00154 2.27051,0 4.10749,-1.79124 4.10749,-4.00154 0,-2.21029 -1.83698,-3.98855 -4.10749,-3.98855 -0.49736,0 -0.96774,0.0863 -1.40881,0.24348 l -4.42718,-4.1744 -0.37914,-0.38659 h -9.41192 l -4.912265,-4.63162 -0.37915,-0.35685 z m -5.24127,5.24867 c -0.53499,0.53728 -1.05219,1.08514 -1.57795,1.62813 h 8.92686 l 4.031295,3.80268 c -0.63387,0.70399 -1.02966,1.60632 -1.02966,2.6169 0,2.21029 1.83699,4.00155 4.10748,4.00155 2.2705,0 4.13723,-1.79126 4.13723,-4.00155 0,-2.2103 -1.86673,-3.98854 -4.13723,-3.98854 -0.60986,0 -1.17683,0.11169 -1.69689,0.34384 l -4.442035,-4.1744 -0.24162,-0.22861 z m 104.919465,0.4535 c -2.26964,0.001 -4.12236,1.79373 -4.12236,4.00341 0,0.78827 0.22959,1.52558 0.6375,2.14482 L 177.65859,129.9067 H 98.595895 l -0.27321,0.22862 -20.5393,19.37025 -0.24161,0.25649 v 26.67266 l 0.24161,0.22861 18.25137,17.21058 0.24161,0.2286 h 4.048025 l 7.91203,7.49012 0.27321,0.23047 h 10.67018 l 1.95524,1.82886 0.24348,0.22861 h 14.26284 l 105.13317,99.1485 v 62.74423 l 1.7285,1.7285 v -65.16255 l -0.24162,-0.22861 -105.64986,-99.60386 -0.24162,-0.25834 H 122.0755 l -1.92364,-1.82886 -0.25835,-0.2286 H 109.2382 l -7.94363,-7.47712 -0.24161,-0.24347 H 96.975205 L 79.270255,175.77465 V 150.416 l 19.99289,-18.8833 h 79.124005 l 0.27136,-0.25649 14.1885,-13.39302 h 0.0297 c 0.65635,0.4237 1.41492,0.68582 2.25818,0.68582 2.2705,0 4.1075,-1.79312 4.1075,-4.00341 0,-2.20969 -1.83602,-4.00055 -4.10563,-4.00155 z m 167.46852,0.26764 -0.24347,0.22861 -24.82708,23.41454 H 233.80854 l -12.59569,-11.86339 -0.27321,-0.25835 H 213.89 l -1.65044,-1.5575 -0.24347,-0.2286 h -3.18377 c -0.19766,-2.03042 -1.95478,-3.61682 -4.09262,-3.61682 -2.27049,0 -4.10749,1.79126 -4.10749,4.00155 0,2.21029 1.837,4.00341 4.10749,4.00341 1.8211,0 3.35648,-1.16173 3.89561,-2.75816 h 2.68381 l 1.63741,1.5575 0.24162,0.22861 h 7.03292 l 12.61241,11.88013 0.24162,0.24162 h 105.1945 l 0.24163,-0.24162 24.84381,-23.39969 h 5.80624 c -0.31952,-0.54609 -0.6473,-1.08879 -0.97391,-1.63184 z m -146.03522,0.8345 c -2.27049,0 -4.1075,1.79126 -4.1075,4.00155 0,2.21029 1.83712,4.00341 4.1075,4.00341 2.2705,0 4.10935,-1.79312 4.10935,-4.00341 0,-2.21029 -1.83885,-4.00155 -4.10935,-4.00155 z m 147.47563,2.62992 -0.27135,0.23046 -24.07064,22.74174 H 204.02273 l -3.6986,-3.50159 -0.24348,-0.2286 h -98.91804 l -0.24347,0.2286 -15.732975,14.83715 -0.27321,0.22861 v 8.63502 c -1.84239,0.40038 -3.21355,2.01772 -3.21355,3.93092 0,2.21029 1.83697,4.00156 4.10748,4.00156 2.27052,0 4.10749,-1.79127 4.10749,-4.00156 0,-1.93402 -1.40028,-3.58098 -3.27293,-3.95879 v -7.91947 l 15.218135,-14.35206 h 97.50923 l 3.68373,3.5016 0.27321,0.2286 h 137.04894 l 0.27321,-0.2286 24.10037,-22.72874 h 6.37869 c -0.3034,-0.55014 -0.61329,-1.09759 -0.92372,-1.64485 z m 0.65237,3.54434 -0.24348,0.25834 -30.07203,28.33052 -0.24347,0.25835 v 15.29623 l -2.44033,2.28792 h -8.72982 l -1.94037,-2.11693 v -14.72378 l -0.30295,-0.22861 -2.9403,-2.44405 -0.24347,-0.2156 H 192.45856 l -0.27135,0.22862 -18.44654,17.41129 h -8.67034 l -12.00465,-11.30768 c 0.8954,-0.7337 1.45528,-1.82956 1.45528,-3.05924 0,-2.21029 -1.83884,-4.00155 -4.10935,-4.00155 -2.27049,0 -4.10749,1.79126 -4.10749,4.00155 0,2.21031 1.837,3.98854 4.10749,3.98854 0.36617,0 0.72346,-0.0562 1.06126,-0.14311 l 12.61241,11.89314 0.24161,0.25834 h 10.14049 l 0.27321,-0.25834 18.41494,-17.36856 h 123.73583 l 2.41059,2.00171 v 14.58066 l 0.21188,0.22861 2.44033,2.6299 0.25835,0.27136 h 10.21483 l 0.24347,-0.22861 2.92543,-2.77302 0.27321,-0.2286 V 147.3589 l 29.55721,-27.89005 h 7.58677 c -0.28237,-0.54428 -0.56956,-1.08647 -0.85867,-1.62812 z m 2.59088,3.47371 -0.27321,0.2286 -27.99785,26.41618 -0.27135,0.22861 v 15.33711 l -4.32123,4.06103 h -13.56402 l -2.10764,-1.95897 v -15.39472 l -0.24347,-0.22861 -2.18199,-2.05932 -0.27322,-0.25648 H 195.6256 l -0.27135,0.25648 -19.43345,18.31086 h -23.13019 l -20.12856,-18.98181 -0.27322,-0.25834 h -9.45837 c -0.48044,-1.68941 -2.05122,-2.92915 -3.94023,-2.92915 -2.27049,0 -4.10934,1.79136 -4.10934,4.00155 0,2.21029 1.83885,4.00341 4.10934,4.00341 2.07539,0 3.78214,-1.50061 4.06103,-3.44583 h 8.60901 l 20.16015,19.01154 0.27321,0.22862 h 24.54087 l 0.24348,-0.22862 19.44645,-18.34058 h 119.00199 l 1.6969,1.6021 v 15.36685 l 0.24347,0.25648 2.59089,2.44405 0.27321,0.22861 h 15.02115 l 0.27321,-0.22861 4.80446,-4.55913 0.24162,-0.2286 v -15.3241 l 27.51275,-25.93109 h 6.77643 c -0.26539,-0.54402 -0.53464,-1.08654 -0.80662,-1.62812 z m -288.290055,1.32861 c -0.57724,0.71636 -1.16371,1.42827 -1.72668,2.15225 v 0.85123 l -2.20429,2.07605 c -1.66006,2.23999 -3.24971,4.51424 -4.77655,6.81918 l 8.46591,-7.99381 0.24161,-0.22861 z m 289.390345,2.10207 -0.27136,0.25834 -25.79913,24.34385 -0.24161,0.2286 v 15.69768 l -5.89732,5.54604 h -20.96307 l -20.67499,-19.48549 -0.24162,-0.2286 h -87.83896 l -0.24161,0.2286 -10.4899,9.85054 c -0.7491,-0.9694 -1.9149,-1.6021 -3.25812,-1.6021 -2.27049,0 -4.10748,1.79312 -4.10748,4.00341 0,2.21029 1.83712,4.03129 4.10748,4.03129 2.2705,0 4.10749,-1.821 4.10749,-4.03129 0,-0.25913 -0.0433,-0.51289 -0.0911,-0.7583 l 10.67019,-10.09216 h 86.44501 l 20.64525,19.48363 0.24347,0.23046 h 22.43322 l 0.24348,-0.23046 6.36569,-6.03114 0.2732,-0.22861 v -15.7237 l 25.31218,-23.85875 h 7.2671 c -0.24988,-0.54525 -0.50378,-1.08888 -0.76017,-1.63184 z m -152.4195,1.60025 c -2.2705,0 -4.10749,1.77824 -4.10748,3.98853 0,2.2103 1.83698,4.00341 4.10748,4.00341 2.27062,0 4.1075,-1.79311 4.1075,-4.00341 0,-2.21029 -1.83688,-3.98853 -4.1075,-3.98853 z m 154.74646,1.33074 -0.24348,0.22861 -24.64495,23.24357 -0.24347,0.2286 v 16.28128 l -7.36747,6.96228 H 311.8713 l -20.43151,-19.26989 -0.24348,-0.2286 h -77.77282 l -0.24348,0.2286 -7.66855,7.24852 c -0.5833,-0.30968 -1.22845,-0.51483 -1.94037,-0.51483 -2.27052,0 -4.10749,1.79124 -4.10749,4.00154 0,2.21029 1.83711,4.00342 4.10749,4.00342 2.27049,0 4.10748,-1.79313 4.10748,-4.00342 0,-0.91601 -0.33332,-1.75493 -0.86424,-2.42917 l 7.35259,-6.90468 h 76.30269 l 20.4185,19.2699 0.24161,0.22861 h 27.78411 l 0.27321,-0.22861 7.86556,-7.44738 0.25835,-0.22862 V 152.0497 l 24.11525,-22.7436 h 6.27275 c -0.2367,-0.54554 -0.48732,-1.08659 -0.73043,-1.62999 z m 2.379,2.82693 -0.27322,0.2286 -23.9331,22.59864 -0.27321,0.2286 v 15.22374 l -8.67034,8.17595 h -29.78396 l -20.34229,-19.21228 -0.27136,-0.2286 h -66.05811 l -0.27321,0.2286 -16.8686,15.89655 c -0.57944,-0.29927 -1.21164,-0.48696 -1.91063,-0.48696 -2.27049,0 -4.10749,1.7931 -4.10749,4.00341 0,2.21029 1.837,4.00155 4.10749,4.00155 2.27062,0 4.13909,-1.79126 4.13909,-4.00155 0,-0.9272 -0.34746,-1.76568 -0.89585,-2.44405 l 16.47644,-15.56757 h 64.69204 l 20.37204,19.21227 0.27321,0.22862 h 31.15002 l 0.24162,-0.22862 9.21676,-8.69077 0.24162,-0.22862 v -15.18283 l 23.44986,-22.12656 h 5.09255 c -0.22356,-0.544 -0.4541,-1.08613 -0.68396,-1.62812 z m -290.152405,2.48865 v 0.002 c -2.27051,0 -4.10748,1.79127 -4.10748,4.00155 0,0.95008 0.34172,1.80263 0.90887,2.48866 l -6.5924,6.20398 -0.24351,0.24161 v 32.29306 l 0.24351,0.25648 20.50767,19.31264 0.25648,0.25835 h 6.185405 l 6.9121,6.51809 0.27322,0.25648 h 10.15535 l 2.13738,2.01658 0.24162,0.25648 h 13.73314 l 102.86012,97.00369 v 57.30971 l 1.72663,1.72663 v -59.66641 l -0.24162,-0.25834 -103.40653,-97.51666 -0.24162,-0.2286 h -13.70341 l -2.15225,-2.04446 -0.24161,-0.2286 h -10.14049 l -6.94185,-6.54783 -0.27321,-0.22861 h -6.153795 l -20.00966,-18.85556 v -30.99017 l 6.44195,-6.033 c 0.56325,0.28281 1.18817,0.45721 1.86599,0.45721 2.27061,0 4.10749,-1.79125 4.10749,-4.00155 0,-2.2103 -1.83688,-4.00341 -4.10749,-4.00341 z m 19.790315,4.00341 -0.27321,0.22861 -10.049445,9.47882 -0.24161,0.25648 v 17.75515 l -2.06298,3.37334 -0.10601,0.171 v 16.15303 l 0.24352,0.2286 7.41206,6.99017 0.24162,0.22861 h 5.124135 l 6.18354,5.83226 0.27321,0.22861 h 11.67196 l 3.60753,1.95895 0.18214,0.10037 h 10.91367 l 107.46756,101.34908 v 66.98926 l 1.72849,1.7285 v -69.40545 l -0.24162,-0.2286 -107.98425,-101.83416 -0.25648,-0.22862 h -11.14227 l -3.59266,-1.93108 -0.18028,-0.12824 H 110.1898 l -6.20027,-5.83226 -0.24161,-0.22861 h -5.124145 l -6.89537,-6.50322 v -15.00999 l 2.03143,-3.35848 0.13568,-0.18586 v -17.58229 l 9.502985,-8.964 h 51.29345 l 7.04965,6.67608 c -0.43063,0.63298 -0.68211,1.39893 -0.68211,2.21543 0,2.2103 1.83699,4.00341 4.10749,4.00341 2.2705,0 4.10749,-1.79311 4.10749,-4.00341 0,-2.21029 -1.83699,-4.00155 -4.10749,-4.00155 -0.80921,0 -1.5483,0.25027 -2.18385,0.64308 l -7.35074,-6.93441 -0.24161,-0.22861 h -52.65766 z m 269.27109,0.91628 -0.25834,0.22862 -17.80904,16.7961 -0.24348,0.25649 v 17.65477 l -13.94502,13.15141 -0.24162,0.25834 v 69.81432 l 0.24162,0.22861 21.34222,20.12671 0.24347,0.25834 h 5.30629 c 0.33911,-0.54063 0.66611,-1.0862 0.99806,-1.62999 h -5.57949 L 341.2315,255.4135 v -68.49845 l 13.94501,-13.15141 0.24162,-0.2286 v -17.65478 l 17.32581,-16.33889 h 8.97329 c -0.19248,-0.54479 -0.39429,-1.0869 -0.5929,-1.62999 z m -304.798105,1.47387 c -0.56953,0.93179 -1.12973,1.86751 -1.67833,2.80833 l 0.61711,39.11595 0.0316,0.32897 0.24161,0.22861 24.07062,22.9146 0.24161,0.2286 h 0.34943 l 4.5777,0.10037 6.077605,5.70402 0.24348,0.25648 h 12.74808 l 1.89392,1.98684 0.27321,0.25835 h 14.32417 l 99.20612,93.35898 v 48.74532 l 1.72849,1.72848 V 306.0174 l -0.24347,-0.2286 -99.72281,-93.87382 -0.24162,-0.2286 h -14.27957 l -1.94037,-1.98683 -0.27135,-0.2565 H 102.7034 l -6.047865,-5.71888 -0.24161,-0.22862 -0.3643,-0.013 -4.6242,-0.10037 -23.5539,-22.42764 z m 44.513315,0.4126 -0.24348,0.22862 -5.12414,4.84535 c -0.58338,-0.30969 -1.2433,-0.51483 -1.95525,-0.51483 -0.14186,0 -0.28551,-0.0137 -0.42375,0 -2.07307,0.20504 -3.71347,1.93126 -3.71347,4.00341 0,2.21029 1.86673,4.00155 4.13722,4.00155 2.27051,0 4.10935,-1.79126 4.10935,-4.00155 0,-0.91018 -0.30962,-1.75897 -0.8345,-2.43105 l 4.77472,-4.50337 h 39.93931 l 3.72834,3.48859 v 5.66127 l 0.27321,0.22861 5.13901,4.84535 0.24162,0.24348 h 14.32603 l 0.24162,-0.24348 14.09742,-13.27965 h 133.08456 l 3.96995,3.74507 v 7.81909 c -1.89214,0.44875 -3.30458,2.05179 -3.30458,3.97367 0,2.27115 1.97317,4.10378 4.3807,4.10378 2.41238,0 4.35097,-1.83263 4.35097,-4.10378 0,-2.06688 -1.59179,-3.75474 -3.6986,-4.04429 v -8.4343 l -0.27321,-0.2286 -4.45505,-4.20228 -0.24348,-0.25834 H 189.70227 l -0.27136,0.25834 -14.08256,13.26478 h -12.85403 l -4.65391,-4.37327 v -5.6334 l -0.24162,-0.2286 -4.24503,-4.00155 -0.24161,-0.22862 z m -48.031665,5.61296 c -1.13916,2.06415 -2.21589,4.15361 -3.25618,6.25602 2.15147,-0.37057 3.77661,-2.1424 3.77661,-4.28034 0,-0.71496 -0.19831,-1.38002 -0.52043,-1.97568 z m 307.651085,1.81771 -0.002,0.002 c -2.40826,0 -4.3807,1.85879 -4.3807,4.12979 0,1.76018 1.17942,3.24829 2.83435,3.83243 v 8.9324 l -12.74623,12.00836 -0.24347,0.25649 v 52.49039 l -7.51801,7.09053 -0.24348,0.2286 v 23.61528 l 0.24348,0.22861 12.18679,11.49168 0.24162,0.25835 h 7.86743 c 0.31342,-0.54241 0.6284,-1.0847 0.93487,-1.62999 h -8.07187 L 350.7678,259.15685 v -22.2994 l 7.48827,-7.06265 0.27322,-0.22861 v -52.54614 l 12.74809,-11.99536 0.24161,-0.25648 v -9.30598 c 2.3167,-0.096 4.16883,-1.89265 4.16883,-4.10192 0,-2.27101 -1.9426,-4.13164 -4.35096,-4.13164 z m 10.48618,0.21559 c -2.40825,0 -4.38071,1.83089 -4.38071,4.10192 0,2.04949 1.58621,3.75943 3.66886,4.07403 v 2.93101 l -20.43151,19.24015 -0.24347,0.25834 v 52.51826 l -6.77457,6.36197 -0.24348,0.25648 v 21.32736 l 0.24348,0.25834 10.29102,9.6777 0.27322,0.25648 h 7.09053 c 0.29715,-0.54205 0.59248,-1.08523 0.88284,-1.62998 h -7.27268 l -9.7762,-9.24836 v -19.98359 l 6.7597,-6.36011 0.27321,-0.22861 v -52.54986 l 20.41664,-19.26803 0.24162,-0.22861 v -3.6447 c 1.36286,-0.30995 2.46438,-1.2361 2.99234,-2.44033 -0.40653,-1.59297 -0.83686,-3.18141 -1.29358,-4.76357 -0.7452,-0.56486 -1.67973,-0.91629 -2.71355,-0.91629 z m -71.23987,6.2616 c -2.40825,0 -4.36584,1.8309 -4.36584,4.10192 0,2.27113 1.95759,4.13164 4.36584,4.13164 2.40824,0 4.34911,-1.86051 4.34911,-4.13164 0,-2.27102 -1.94087,-4.10192 -4.34911,-4.10192 z m -209.27385,0.55758 -0.19701,0.12824 -4.183705,2.27306 -0.42375,0.22861 v 8.40456 l -2.54627,2.43104 -0.27322,0.2286 v 15.05275 l 0.27322,0.2286 4.62231,4.39 0.27322,0.22861 h 7.352585 l 6.83591,7.07566 0.25649,0.28622 h 9.30783 l 2.75815,0.7137 0.10594,0.0297 h 12.44328 l 110.01569,103.73551 v 73.23043 l 0.8847,0.88468 c 0.41836,-0.12695 0.83332,-0.26911 1.25083,-0.3996 l -0.40703,-0.38473 v -74.01846 l -0.24162,-0.2286 -110.51566,-104.19458 -0.24347,-0.25649 h -12.97484 l -2.86409,-0.71556 -0.10594,-0.0279 h -8.65547 l -6.80616,-7.09053 -0.27322,-0.27135 h -7.426935 l -4.13723,-3.90305 v -13.67924 l 2.57602,-2.42918 0.24346,-0.2286 v -8.14807 l 3.561065,-1.94409 h 25.99614 l 3.38079,3.18748 c -0.58968,0.69268 -0.95532,1.58861 -0.95532,2.55928 0,2.21029 1.837,3.98855 4.10749,3.98855 2.27051,0 4.10749,-1.77826 4.10749,-3.98855 0,-2.2103 -1.83698,-4.0034 -4.10749,-4.0034 -0.65684,0 -1.25268,0.16299 -1.80283,0.42933 l -3.75994,-3.54434 -0.24161,-0.25834 H 101.3113 Z m -42.126895,3.15775 c -0.56344,0 -1.097,0.11 -1.59649,0.28436 -1.90216,4.29237 -3.60276,8.65166 -5.10562,13.06405 l 5.15767,-4.88624 c 0.48065,0.15988 1.00784,0.25648 1.54635,0.25649 2.55152,0 4.6223,-1.95396 4.6223,-4.36027 0,-2.40631 -2.07078,-4.35839 -4.6223,-4.35839 z m 46.652565,0.21188 0.004,0.004 c -2.2705,0 -4.10935,1.79125 -4.10935,4.00155 0,1.28308 0.64439,2.39972 1.60769,3.13172 l -5.547895,5.21707 -0.27322,0.22861 v 9.01975 l 0.27322,0.25648 3.925345,3.7172 0.27321,0.24347 h 5.21335 l 5.98839,5.61667 0.24162,0.25834 h 10.51964 l 3.63911,3.44397 0.2565,0.25835 h 15.4003 l 81.65542,76.97549 0.24162,0.25835 h 18.15845 l 9.04949,8.53279 v 93.41475 l 0.27322,0.2286 0.12266,0.11524 c 0.59368,-0.19719 1.18502,-0.40338 1.77682,-0.60776 l -0.44792,-0.4219 v -93.38687 l -0.24162,-0.22861 -9.59591,-9.04948 -0.24163,-0.22862 h -18.12871 l -81.65543,-77.00522 -0.2732,-0.22861 h -15.36872 l -3.68373,-3.47371 -0.24347,-0.2286 h -10.48833 l -5.98839,-5.66128 -0.24162,-0.2286 h -5.21335 l -3.471845,-3.25998 v -7.64624 l 5.715165,-5.37506 c 0.28609,0.0617 0.57399,0.0985 0.87912,0.0985 2.2705,0 4.10748,-1.77641 4.10748,-3.98669 0,-2.2103 -1.83698,-4.0034 -4.10748,-4.0034 z m 14.08442,0.004 c -2.27049,0 -4.10935,1.79125 -4.10935,4.00155 0,0.70707 0.21644,1.35494 0.54642,1.93107 l -4.62232,3.31574 -0.34941,0.25648 v 0.42933 l 0.24347,10.02154 v 0.29923 l 0.24162,0.22861 4.83605,4.56099 0.24162,0.2286 h 9.27624 l 4.32123,3.70232 0.24162,0.19887 h 15.02115 l 81.54948,76.9346 0.27321,0.2286 h 18.53576 l 13.40045,12.63658 v 81.63683 l 0.24161,0.22862 8.4659,7.98451 c 0.54528,-0.24769 1.09067,-0.49483 1.6337,-0.74902 l -8.61086,-8.12204 v -81.66472 l -0.27321,-0.25835 -13.88555,-13.09378 -0.24163,-0.22861 h -18.53759 l -81.57923,-76.90487 -0.27136,-0.25648 h -15.05274 l -4.31937,-3.67443 -0.24348,-0.22862 h -9.24649 l -4.28964,-4.04615 -0.24161,-9.27624 4.3491,-3.14474 c 0.68634,0.50239 1.53137,0.81406 2.45706,0.81406 2.27051,0 4.13723,-1.77824 4.13723,-3.98853 0,-2.21029 -1.86672,-4.00155 -4.13723,-4.00155 z m 267.19876,0.86796 -22.99266,21.70279 -0.24162,0.2286 v 52.31754 l -6.32107,5.96051 -0.24347,0.25834 v 17.48193 l 0.24347,0.25648 8.91195,8.37668 0.24348,0.25835 h 6.38798 c 0.28038,-0.54217 0.55709,-1.0853 0.8308,-1.62999 h -6.49207 l -8.39713,-7.93433 v -16.15303 l 6.29134,-5.93077 0.27136,-0.25835 v -52.33268 l 21.90723,-20.66013 c -0.13297,-0.64759 -0.25847,-1.29601 -0.39959,-1.94222 z m 0.78432,3.81569 -20.13042,19.01712 -0.27321,0.22861 v 52.53313 l -6.94185,6.56083 -0.27321,0.24348 v 13.79448 l 0.27321,0.2286 7.22993,6.84706 0.27322,0.22861 h 6.72625 c 0.26417,-0.54207 0.52297,-1.08558 0.7806,-1.62999 h -6.78386 l -6.77643,-6.36011 v -12.4377 l 6.97343,-6.54597 0.24163,-0.25834 v -52.51826 l 19.03756,-17.95401 c -0.1185,-0.65926 -0.22997,-1.31952 -0.35685,-1.97754 z m -156.84851,2.24889 -0.3773,0.35685 -19.37212,18.26812 h -11.18687 l -4.27477,-4.02943 c 0.46308,-0.64761 0.74344,-1.43826 0.74344,-2.28793 0,-2.2103 -1.83699,-4.00341 -4.10748,-4.00341 -2.27052,0 -4.1075,1.79311 -4.1075,4.00341 0,2.21029 1.83711,3.98854 4.1075,3.98854 0.45477,0 0.87932,-0.068 1.288,-0.20073 l 4.89553,4.58887 0.37915,0.38658 h 13.33913 l 0.37915,-0.38658 19.37026,-18.24024 h 53.91592 l 10.56424,9.96393 c -0.34914,0.591 -0.5743,1.26043 -0.5743,1.98683 0,2.27112 1.94062,4.13165 4.34911,4.13165 2.40813,0 4.3807,-1.86053 4.3807,-4.13165 0,-2.27102 -1.97257,-4.10192 -4.3807,-4.10192 -0.68187,0 -1.30548,0.16549 -1.87904,0.42748 l -11.00473,-10.36352 -0.37915,-0.35685 z m 157.69232,2.57602 -16.57866,15.63634 -0.27135,0.25649 v 52.87696 l -7.10912,6.70395 -0.24348,0.22861 v 10.87834 l 0.24348,0.2286 4.24317,4.00342 0.27322,0.25649 h 7.26523 c 0.24661,-0.54216 0.49025,-1.08566 0.73043,-1.62999 h -7.26896 l -3.75807,-3.51646 v -9.56432 l 7.10911,-6.67421 0.24162,-0.25834 v -52.84751 l 15.43934,-14.56952 c -0.0992,-0.67035 -0.20818,-1.33985 -0.31596,-2.00913 z m -141.80693,3.35662 -0.37916,0.35685 -17.40015,16.43925 h -34.52893 l -9.50485,-8.977 c 0.1817,-0.45207 0.28808,-0.92897 0.28808,-1.44413 0,-2.2103 -1.83687,-4.00341 -4.10749,-4.00341 -2.2705,0 -4.10749,1.79311 -4.10749,4.00341 0,2.21029 1.83699,3.98854 4.10749,3.98854 0.80926,0 1.56318,-0.23725 2.19872,-0.63006 l 9.7,9.12011 0.37915,0.38659 h 36.63659 l 0.37914,-0.38659 17.43175,-16.40951 h 13.91528 l 60.41729,56.94914 v 34.32264 l 0.37915,0.35685 29.10371,27.44584 0.37729,0.35685 h 3.17819 c 0.6577,-0.80958 1.30474,-1.62466 1.94409,-2.44405 h -4.0443 l -28.3454,-26.73028 v -34.2929 l -0.37915,-0.35685 -61.17558,-57.69444 -0.37916,-0.35685 h -16.0824 z m -141.52815,1.27128 c -2.07308,0.20506 -3.68372,1.93124 -3.68372,4.0034 0,2.21028 1.83696,4.00156 4.10749,4.00156 0.2559,0 0.51538,-0.042 0.7583,-0.0855 l 6.7913,6.43259 0.24162,0.2286 h 11.32254 l 2.59274,2.44405 0.24162,0.22862 h 15.85566 l 82.33567,77.64829 0.24348,0.23046 h 18.5692 l 10.97313,10.33379 v 93.04488 l 0.24348,0.2286 0.70254,0.66538 c 0.59006,-0.21351 1.17952,-0.42793 1.76752,-0.64865 l -0.98319,-0.93302 v -93.04302 l -0.24162,-0.2286 -11.48982,-10.82259 -0.24161,-0.22861 h -18.56921 l -82.3208,-77.61856 -0.25834,-0.25834 h -15.8854 l -2.56114,-2.44405 -0.24161,-0.22861 h -11.32255 l -6.07946,-5.73191 c 1.01414,-0.72822 1.66716,-1.89502 1.66716,-3.21721 0,-2.21031 -1.83698,-4.00155 -4.1075,-4.00155 -0.14197,0 -0.28555,-0.0137 -0.42376,0 z m 14.09557,0 c -2.07308,0.20506 -3.69859,1.93124 -3.69859,4.0034 0,2.21028 1.83884,4.00156 4.10934,4.00156 1.98674,0 3.67334,-1.36407 4.06103,-3.18749 h 0.94045 l 5.53303,5.21707 0.27135,0.25834 h 30.13523 l 16.5675,15.65307 0.25649,0.22861 h 71.77328 l 0.24161,-0.22861 5.24496,-4.94571 c 0.53849,0.22196 1.13441,0.35685 1.75823,0.35685 0.0282,0 0.0479,4.6e-4 0.0762,0 v 4.86022 l 0.24161,0.2286 55.82657,52.64836 v 23.29933 l 0.27134,0.2286 31.62583,29.83972 c 0.39529,-0.39826 0.78256,-0.80113 1.17277,-1.20252 L 314.5737,273.48116 v -23.27144 l -0.24162,-0.22862 -55.82656,-52.64836 v -4.58886 c 1.50097,-0.64624 2.54627,-2.05475 2.54627,-3.71533 0,-2.26965 -1.94417,-4.10377 -4.35096,-4.10377 -2.40667,0 -4.37884,1.83412 -4.37884,4.10377 0,1.07679 0.47374,2.04194 1.19693,2.77302 l -4.78959,4.51639 h -70.30129 l -16.62883,-15.65308 -0.24161,-0.22861 h -30.10364 l -5.56276,-5.2468 -0.24163,-0.22861 h -1.66715 c -0.38776,-1.82342 -2.07613,-3.18748 -4.06288,-3.18748 -0.14188,0 -0.2707,-0.0137 -0.4089,0 z m 14.38366,0 c -2.07219,0.20589 -3.68002,1.93186 -3.68002,4.0034 0,2.21028 1.83699,4.00156 4.1075,4.00156 2.08424,0 3.79302,-1.51637 4.06102,-3.47371 h 21.66004 l 18.53947,17.48377 0.37729,0.35685 h 62.52493 l 0.37916,-0.35685 12.53434,-11.79277 c 0.67144,0.39627 1.45897,0.62821 2.30466,0.62821 1.66344,0 3.10223,-0.88775 3.83427,-2.1857 l 56.50866,53.28958 v 32.13507 l 0.36429,0.35685 32.05702,30.21886 0.39401,0.35685 h 1.81214 c 0.70748,-0.80912 1.40448,-1.62414 2.09277,-2.44405 h -2.84365 l -31.2857,-29.51817 v -32.13508 l -0.37915,-0.35685 -58.44717,-55.10542 c -0.57032,-1.6383 -2.17689,-2.83064 -4.10749,-2.83064 -2.40667,0 -4.38071,1.83228 -4.38071,4.10192 0,0.57989 0.14751,1.12794 0.37916,1.62998 l -12.263,11.56416 h -60.38755 l -18.5376,-17.48377 -0.37915,-0.35685 h -23.22127 c -0.69663,-1.24168 -2.03579,-2.0872 -3.59266,-2.0872 -0.14136,0 -0.28614,-0.0134 -0.42375,0 z m 255.53237,0.0149 -14.06955,13.26664 -0.24162,0.23047 v 45.74369 l 0.24162,0.2286 8.42315,7.93991 c 0.18478,-0.60178 0.37268,-1.20303 0.55014,-1.80655 l -7.4734,-7.04779 v -44.37019 l 12.83358,-12.12917 c -0.0808,-0.68603 -0.1742,-1.37048 -0.26392,-2.05561 z m 0.50926,4.32866 -11.24449,10.60328 -0.24162,0.2286 v 42.65471 l 0.24162,0.22861 6.14079,5.79137 c 0.17156,-0.6095 0.34884,-1.21773 0.51297,-1.82885 l -5.16875,-4.87695 v -41.28306 l 9.96392,-9.39705 c -0.0635,-0.70724 -0.13151,-1.41415 -0.20444,-2.12066 z m 0.42375,4.73756 -8.1016,7.64067 -0.24161,0.24348 v 39.181 l 0.24161,0.2286 3.65213,3.44212 c 0.15806,-0.62414 0.31615,-1.24782 0.46651,-1.87346 l -2.63362,-2.48308 v -37.80968 l 6.75412,-6.37497 c -0.0434,-0.73179 -0.084,-1.46376 -0.13754,-2.195 z m -334.331095,0.16727 1.6299,1.62999 h 3.56298 l 26.98118,25.459 0.24161,0.25649 h 5.65385 l 6.776435,6.38984 0.24162,0.22861 h 11.44521 l 1.90877,1.81585 0.27322,0.2286 h 15.18656 l 95.49451,90.05627 v 43.33309 l 1.72663,1.72663 V 306.4006 l -0.24162,-0.22861 -96.00934,-90.51348 -0.24161,-0.25834 h -15.2479 l -1.86416,-1.78611 -0.25835,-0.25835 h -11.45822 l -6.791305,-6.39016 -0.24347,-0.22861 h -5.60734 l -26.99612,-25.45715 -0.24161,-0.25834 z m 4.50145,4.50152 3.1615,3.16146 c -0.36818,-1.51955 -1.58974,-2.72072 -3.1615,-3.16146 z m 239.860735,0.77503 c -2.40849,0 -4.35096,1.85877 -4.35096,4.12979 0,2.27114 1.94247,4.10377 4.35096,4.10377 0.40016,0 0.79812,-0.0625 1.1672,-0.15797 l 28.2692,26.63177 v 40.28315 l 0.63564,0.61333 24.6468,23.24357 0.62077,0.61519 h 4.76729 c 0.98029,-1.34552 1.9314,-2.70522 2.86409,-4.07404 h -5.81181 l -23.40341,-22.07079 v -40.29801 l -0.62077,-0.58546 -28.88997,-27.2321 c 0.0967,-0.33906 0.13568,-0.70429 0.13568,-1.07241 0,-2.27102 -1.97258,-4.12979 -4.38071,-4.12979 z m 90.27744,0.32339 -0.92744,0.8754 -1.27499,1.20065 v 30.88609 c 1.87802,-10.89376 2.60845,-21.9442 2.20243,-32.96214 z m -316.232165,12.311 c -0.1553,0 -0.30213,0.0286 -0.45353,0.0428 l 5.01826,5.0182 c 0.0356,-0.23006 0.0595,-0.4638 0.0595,-0.70069 0,-2.40631 -2.07268,-4.36026 -4.62421,-4.36026 z m 273.263365,3.03137 c -2.40669,0 -4.35098,1.83226 -4.35098,4.10192 0,2.26963 1.94429,4.10377 4.35098,4.10377 2.40677,0 4.38069,-1.83414 4.38069,-4.10377 0,-2.26966 -1.97404,-4.10192 -4.38069,-4.10192 z m -88.11218,5.04607 c -2.4068,0 -4.34912,1.83227 -4.34912,4.10192 0,2.26978 1.94245,4.10377 4.34912,4.10377 2.40667,0 4.35096,-1.83399 4.35096,-4.10377 0,-2.26965 -1.94429,-4.10192 -4.35096,-4.10192 z m -74.74333,0.64309 c -2.19725,0.21052 -3.92534,1.97417 -3.92534,4.1019 0,2.26964 1.94428,4.10378 4.35097,4.10378 2.40677,0 4.3807,-1.83414 4.38069,-4.10378 0,-2.26964 -1.97403,-4.1019 -4.38069,-4.1019 -0.15033,0 -0.27904,-0.0137 -0.42563,0 z m 11.15714,1.24339 c -2.40665,0 -4.3807,1.83225 -4.3807,4.10191 0,2.26976 1.97405,4.13166 4.3807,4.13166 2.26565,0 4.10971,-1.65838 4.31938,-3.74507 h 48.45908 l 6.7467,6.37497 c -0.18103,0.45171 -0.28809,0.9318 -0.28809,1.44413 0,2.26975 1.94246,4.13166 4.34912,4.13166 2.40667,0 4.35096,-1.86191 4.35096,-4.13166 0,-2.26964 -1.94429,-4.10192 -4.35096,-4.10192 -0.91615,0 -1.76991,0.25948 -2.47008,0.7137 l -6.88237,-6.51808 -0.37915,-0.35685 h -50.09652 c -0.75362,-1.21745 -2.15197,-2.04445 -3.75807,-2.04445 z m -110.738645,1.35863 1.62809,1.62813 h 5.70402 l 6.51809,6.14822 0.24348,0.22861 h 11.822495 l 1.51476,1.41439 0.24347,0.25834 h 14.24798 l 94.21951,88.85562 v 37.61049 l 1.73035,1.73035 v -40.02852 l -0.24162,-0.22861 -94.76594,-89.3407 -0.24347,-0.22861 h -14.21823 l -1.50175,-1.42926 -0.27136,-0.25835 h -11.83923 l -6.486495,-6.10361 -0.24348,-0.25649 z m 4.74125,3.18749 c -0.47123,0 -0.91725,0.0844 -1.34566,0.20816 l 5.65943,5.65942 c 0.19285,-0.4694 0.30853,-0.97504 0.30853,-1.50732 0,-2.4063 -2.07073,-4.36026 -4.6223,-4.36026 z m 111.686555,2.3158 -0.3773,0.35685 -3.48672,3.28785 c -0.55882,-0.2485 -1.1759,-0.41447 -1.83443,-0.41447 -2.40667,0 -4.38071,1.86201 -4.38071,4.13166 0,2.26976 1.97404,4.10192 4.38071,4.10192 2.4068,0 4.35096,-1.83216 4.35096,-4.10192 0,-0.75509 -0.21527,-1.44843 -0.59103,-2.05932 l 3.03137,-2.85852 h 44.47241 l 2.59274,2.44405 0.16541,4.41788 0.0149,0.58545 0.51669,0.35685 5.19848,3.61683 c -0.31988,0.57155 -0.51482,1.2088 -0.51482,1.90134 0,2.26977 1.94243,4.10191 4.3491,4.10191 2.40668,0 4.35097,-1.83214 4.35097,-4.10191 0,-2.26965 -1.94429,-4.10191 -4.35097,-4.10191 -0.71228,0 -1.37739,0.17225 -1.9701,0.4572 l -5.03308,-3.51645 -0.16541,-4.30264 -0.0316,-0.48695 -0.34755,-0.32897 -3.31945,-3.12988 -0.37916,-0.35685 h -46.63953 z m -106.692535,4.23202 1.62813,1.62813 h 12.052975 l 2.04631,1.92922 0.24162,0.2286 h 15.32409 l 91.43162,86.24058 v 32.70008 l 1.7285,1.7285 v -35.11441 l -0.25834,-0.2286 -91.9316,-86.69779 -0.2732,-0.25648 h -15.3241 l -2.01658,-1.92923 -0.27321,-0.2286 z m 253.359675,2.15783 c -2.41237,0 -4.35096,1.86189 -4.35096,4.13165 0,2.26953 1.93859,4.10191 4.35096,4.10191 2.40608,0 4.34911,-1.83238 4.34911,-4.10191 0,-2.26976 -1.94303,-4.13165 -4.34911,-4.13165 z m -133.64212,1.91435 c -2.19736,0.21053 -3.88075,1.97594 -3.88075,4.10378 0,2.26953 1.94429,4.1019 4.35097,4.1019 1.91301,0 3.52312,-1.15795 4.10749,-2.77301 h 3.10757 l 56.59787,53.4048 0.65237,0.58546 h 34.28546 l 26.54071,25.02967 2.97932,-2.97932 -27.07784,-25.53706 -0.62262,-0.58732 h -34.28547 l -56.64434,-53.40482 -0.65237,-0.58545 h -5.77465 c -0.79522,-0.82531 -1.9349,-1.35863 -3.2135,-1.35863 -0.15041,0 -0.3237,-0.0137 -0.47022,0 z m -115.613785,0.0316 1.626265,1.62626 h 6.83219 l 3.63913,3.44584 v 7.02548 l 4.89553,4.89553 h 18.2644 l 65.35927,61.64023 V 324.713 l 1.7285,1.72848 v -24.3996 l -0.25649,-0.22862 -65.8611,-62.12346 -0.27321,-0.22861 h -18.44653 l -3.68374,-3.47371 v -7.51987 l -0.24348,-0.2286 -4.15209,-3.91606 -0.24348,-0.2286 z m 20.217775,3.05738 c -2.32966,0.22323 -4.13909,2.10237 -4.13909,4.3584 0,2.40619 2.0726,4.34725 4.62419,4.34725 2.26964,0 4.15661,-1.5542 4.54611,-3.58895 h 5.74491 l 84.38384,79.57939 v 27.62612 l 1.74336,1.74336 v -30.02743 l -0.25834,-0.2286 -84.91354,-80.09235 -0.24162,-0.22862 h -6.45675 c -0.43086,-1.98546 -2.31533,-3.48857 -4.54797,-3.48857 -0.15949,0 -0.3298,-0.015 -0.4851,0 z m -14.05468,0.37171 c -0.79737,0 -1.53624,0.20695 -2.19128,0.54272 l 6.11291,6.11291 c 0.44127,-0.6682 0.70069,-1.45273 0.70069,-2.29536 0,-2.40628 -2.07073,-4.36027 -4.62232,-4.36027 z m 271.76533,12.52135 c -4.07016,0 -7.38048,3.10914 -7.38048,6.94742 0,3.8384 3.31032,6.96228 7.38048,6.96228 0.50034,0 0.98858,-0.0476 1.46085,-0.13753 1.55191,-3.70739 2.95741,-7.46133 4.21529,-11.25378 -1.35094,-1.53817 -3.39157,-2.51839 -5.67614,-2.51839 z m -83.99725,8.83389 c -2.40691,0 -4.35097,1.83401 -4.35097,4.10377 0,2.26952 1.94406,4.12979 4.35097,4.12979 2.40667,0 4.36583,-1.86027 4.36583,-4.12979 0,-2.26976 -1.95916,-4.10377 -4.36583,-4.10377 z m -168.632,0.51484 1.62998,1.62998 h 6.1538 l 23.41828,22.09867 v 7.47526 l 9.91744,9.91559 26.58346,25.05012 v 1.53519 l 1.72663,1.72664 v -3.91791 l -0.24161,-0.22862 -36.25744,-34.22227 v -8.03283 l -0.24347,-0.24348 -23.93311,-22.55774 -0.24161,-0.2286 z m 3.57221,3.57221 7.41021,7.41021 16.24968,15.33525 v 0.91629 l 1.72664,1.72663 v -3.3306 l -0.24162,-0.25649 -22.91831,-21.57083 -0.24348,-0.23046 z m 172.84729,8.45288 c -4.13611,0 -7.48827,3.16007 -7.48827,7.0608 0,3.90049 3.35228,7.04778 7.48827,7.04778 4.13597,0 7.4734,-3.14729 7.4734,-7.04778 0,-3.90073 -3.33743,-7.06081 -7.4734,-7.0608 z m -136.97645,11.84296 v 0.002 c -2.06423,0 -3.72833,1.56988 -3.72833,3.51646 0,1.9467 1.6641,3.52947 3.72833,3.52947 0.77404,0 1.49591,-0.21735 2.09092,-0.60033 h 0.0149 l 30.89167,29.11858 v 13.00829 l 1.72848,1.7285 v -15.39473 l -0.24347,-0.22861 -31.23923,-29.46056 c 0.29538,-0.50763 0.48509,-1.08414 0.48509,-1.70247 0,-1.94658 -1.66421,-3.51645 -3.72834,-3.51645 z m 76.66697,1.80283 c -2.09287,0 -3.81941,1.60038 -3.81941,3.57407 0,1.9738 1.72654,3.55921 3.81941,3.55921 2.09286,0 3.7748,-1.58541 3.7748,-3.55921 0,-1.97369 -1.68208,-3.57407 -3.7748,-3.57407 z m 28.28778,8.17595 c -2.09284,0 -3.7748,1.63001 -3.7748,3.60381 0,1.97358 1.68196,3.55921 3.7748,3.55921 1.37922,0 2.60412,-0.69346 3.27299,-1.73035 l 4.35096,0.12824 11.64036,10.97871 v 43.72712 l 0.37916,0.3587 7.12956,6.73368 c 0.68794,-0.49849 1.36651,-1.01499 2.04817,-1.5259 l -6.966,-6.58128 v -43.72526 l -0.37916,-0.3587 -12.36893,-11.66453 -0.34942,-0.34199 -0.51483,-0.0149 -4.51638,-0.15613 c -0.31528,-1.68094 -1.86205,-2.98861 -3.73019,-2.98861 z m 25.1003,5.1037 v 15.4672 h 16.40022 v -15.4672 z m -25.10401,5.53303 c -2.09287,0 -3.77481,1.58553 -3.77481,3.5592 0,1.9737 1.68194,3.60195 3.77481,3.60195 1.86814,0 3.41305,-1.30592 3.72834,-2.98675 a 1.2987091,1.2247649 0 0 0 0.13567,0 h 6.53296 l 4.57771,4.30264 v 43.52639 l 0.37915,0.35685 7.51615,7.10539 c 0.70678,-0.48026 1.40326,-0.98091 2.10393,-1.47385 l -7.4065,-7.00318 v -43.52639 l -0.37914,-0.35871 -5.3193,-4.98846 -0.37915,-0.38659 h -7.62395 a 1.2971327,1.2232782 0 0 0 -0.13753,0 1.2987091,1.2247649 0 0 0 -0.4089,0.10036 c -0.65373,-1.09268 -1.89595,-1.82885 -3.31944,-1.82885 z m 0.0279,9.42864 c -2.09284,0 -3.7748,1.58538 -3.7748,3.55921 0,1.97356 1.68196,3.60194 3.7748,3.60194 0.86797,0 1.67659,-0.27487 2.31952,-0.74157 l 6.21514,5.8304 v 32.62203 l 0.40889,0.35685 8.68335,8.18896 c 0.7327,-0.45672 1.4645,-0.91484 2.19128,-1.38465 l -8.67591,-8.17596 v -32.59228 l -0.37916,-0.35685 -7.03291,-6.63332 c 0.0509,-0.23327 0.0911,-0.46702 0.0911,-0.7137 0,-1.97379 -1.72656,-3.56106 -3.81941,-3.56106 z m 44.09141,5.45497 c -2.09286,0 -3.78967,1.61524 -3.78967,3.58894 0,1.9737 1.69681,3.57408 3.78967,3.57408 2.09296,0 3.80453,-1.60038 3.80454,-3.57408 0,-1.9737 -1.71158,-3.58895 -3.80454,-3.58894 z m 18.99295,2.76001 c -2.08712,0 -3.78967,1.58552 -3.78967,3.55921 0,1.53006 1.02848,2.82662 2.46078,3.33617 l 4.77659,-4.77844 c -0.58474,-1.2481 -1.90091,-2.11694 -3.4477,-2.11694 z m -63.07321,2.41432 0.002,0.002 c -2.09285,0 -3.77481,1.59854 -3.77481,3.57221 0,1.97371 1.68196,3.55921 3.77481,3.55921 0.60897,0 1.18473,-0.14478 1.69689,-0.38473 l 0.68211,1.12817 v 30.97717 l 0.37914,0.38658 8.2503,7.4604 c 0.77512,-0.4322 1.54277,-0.88269 2.31209,-1.3289 l -8.35066,-7.56075 v -30.62032 l -0.18214,-0.28623 -1.2434,-2.04444 c 0.16774,-0.40141 0.25835,-0.82885 0.25835,-1.28616 0,-1.97369 -1.7117,-3.57406 -3.80455,-3.57406 z m -60.79458,2.41617 c -2.09296,0 -3.77479,1.60037 -3.77479,3.57407 0,1.97367 1.68196,3.58894 3.77479,3.58894 2.09299,0 3.78782,-1.61527 3.78782,-3.58894 0,-1.9737 -1.69483,-3.57407 -3.78782,-3.57407 z m 105.53464,19.03199 c -1.08876,0.36986 -1.93447,1.1882 -2.29723,2.22659 0.77416,-0.72858 1.53428,-1.4795 2.29723,-2.22659 z m -16.73663,0.68954 c -2.09297,0 -3.78968,1.60039 -3.78967,3.57407 0,1.97369 1.6967,3.5592 3.78967,3.5592 2.09273,0 3.78967,-1.58551 3.78967,-3.5592 0,-1.97368 -1.69708,-3.57407 -3.78967,-3.57407 z" />
      </g>
      <g
         transform="matrix(0.45296749,0,0,0.44370522,336.99589,-122.43429)"
         id="layer1">
        <g
           transform="translate(-727,-21)"
           id="g4726">
          <path
             d="m 568.57141,471.29074 a 214.64285,214.64285 0 1 1 -429.2857,0 214.64285,214.64285 0 1 1 429.2857,0 z"
             transform="matrix(0.59186864,0,0,0.59186864,645.52079,666.41997)"
             id="path4724"
             style="fill:#5d5f5f;fill-opacity:1;stroke:none" />
          <path
             d="m 568.57141,471.29074 a 214.64285,214.64285 0 1 1 -429.2857,0 214.64285,214.64285 0 1 1 429.2857,0 z"
             transform="matrix(0.59186864,0,0,0.59186864,645.52079,666.41997)"
             id="path4642"
             style="fill:url(#radialGradient4735);fill-opacity:1;stroke:none" />
          <path
             d="m 568.57141,471.29074 a 214.64285,214.64285 0 1 1 -429.2857,0 214.64285,214.64285 0 1 1 429.2857,0 z"
             transform="matrix(0.59186864,0,0,0.59186864,645.52079,666.41997)"
             id="path4670"
             style="fill:url(#radialGradient4737);fill-opacity:1;stroke:none" />
          <path
             d="m 568.57141,471.29074 a 214.64285,214.64285 0 1 1 -429.2857,0 214.64285,214.64285 0 1 1 429.2857,0 z"
             transform="matrix(0.59186864,0,0,0.59186864,645.52079,666.41997)"
             id="path4674"
             style="fill:url(#radialGradient4739);fill-opacity:1;stroke:none" />
          <path
             d="m 568.57141,471.29074 a 214.64285,214.64285 0 1 1 -429.2857,0 214.64285,214.64285 0 1 1 429.2857,0 z"
             transform="matrix(0.59186864,0,0,0.59186864,645.52079,666.41997)"
             id="path4678"
             style="fill:url(#radialGradient4741);fill-opacity:1;stroke:none" />
          <path
             d="m 568.57141,471.29074 a 214.64285,214.64285 0 1 1 -429.2857,0 214.64285,214.64285 0 1 1 429.2857,0 z"
             transform="matrix(0.59186864,0,0,0.59186864,645.52079,666.41997)"
             id="path4688"
             style="fill:url(#radialGradient4743);fill-opacity:1;stroke:none" />
          <path
             d="m 568.57141,471.29074 a 214.64285,214.64285 0 1 1 -429.2857,0 214.64285,214.64285 0 1 1 429.2857,0 z"
             transform="matrix(0.59186864,0,0,0.59186864,645.52079,666.41997)"
             id="path4706"
             style="fill:url(#radialGradient4745);fill-opacity:1;stroke:none" />
        </g>
        <g
           id="g4924">
          <path
             d="m 568.57141,471.29074 a 214.64285,214.64285 0 1 1 -429.2857,0 214.64285,214.64285 0 1 1 429.2857,0 z"
             transform="matrix(0.56551391,0,0,0.56551391,-72.151523,657.84071)"
             id="path3766"
             style="fill:#706062;fill-opacity:1;stroke:none" />
          <path
             d="m 568.57141,471.29074 a 214.64285,214.64285 0 1 1 -429.2857,0 214.64285,214.64285 0 1 1 429.2857,0 z"
             transform="matrix(0.56551391,0,0,0.56551391,-72.151523,657.84071)"
             id="path4556"
             style="fill:#767676;fill-opacity:1;stroke:none" />
          <path
             d="m 568.57141,471.29074 a 214.64285,214.64285 0 1 1 -429.2857,0 214.64285,214.64285 0 1 1 429.2857,0 z"
             transform="matrix(0.56551391,0,0,0.56551391,-72.151523,657.84071)"
             id="path4544"
             style="fill:url(#radialGradient4981);fill-opacity:1;stroke:none" />
          <path
             d="m 568.57141,471.29074 a 214.64285,214.64285 0 1 1 -429.2857,0 214.64285,214.64285 0 1 1 429.2857,0 z"
             transform="matrix(0.56551391,0,0,0.56551391,-72.151523,657.84071)"
             id="path4560"
             style="fill:url(#radialGradient4983);fill-opacity:1;stroke:none" />
          <path
             d="m 568.57141,471.29074 a 214.64285,214.64285 0 1 1 -429.2857,0 214.64285,214.64285 0 1 1 429.2857,0 z"
             transform="matrix(0.56551391,0,0,0.56551391,-72.151523,657.84071)"
             id="path4570"
             style="fill:url(#radialGradient4985);fill-opacity:1;stroke:none" />
          <path
             d="m 568.57141,471.29074 a 214.64285,214.64285 0 1 1 -429.2857,0 214.64285,214.64285 0 1 1 429.2857,0 z"
             transform="matrix(0.56551391,0,0,0.56551391,-72.151523,657.84071)"
             id="path4582"
             style="fill:url(#radialGradient4987);fill-opacity:1;stroke:none" />
          <path
             d="m 568.57141,471.29074 a 214.64285,214.64285 0 1 1 -429.2857,0 214.64285,214.64285 0 1 1 429.2857,0 z"
             transform="matrix(0.56551391,0,0,0.56551391,-72.151523,657.84071)"
             id="path4592"
             style="fill:url(#radialGradient4989);fill-opacity:1;stroke:none" />
          <path
             d="m 568.57141,471.29074 a 214.64285,214.64285 0 1 1 -429.2857,0 214.64285,214.64285 0 1 1 429.2857,0 z"
             transform="matrix(0.56551391,0,0,0.56551391,-72.151523,657.84071)"
             id="path4602"
             style="fill:url(#radialGradient4991);fill-opacity:1;stroke:none" />
          <path
             d="m 568.57141,471.29074 a 214.64285,214.64285 0 1 1 -429.2857,0 214.64285,214.64285 0 1 1 429.2857,0 z"
             transform="matrix(0.56551391,0,0,0.56551391,-72.151523,657.84071)"
             id="path4630"
             style="fill:url(#radialGradient4993);fill-opacity:1;stroke:none" />
        </g>
        <g
           id="g4879">
          <g
             id="g4800">
            <path
               d="m 568.57141,471.29074 a 214.64285,214.64285 0 1 1 -429.2857,0 214.64285,214.64285 0 1 1 429.2857,0 z"
               transform="matrix(0.51198087,0,0,0.51198087,-53.204651,683.07034)"
               id="path3768"
               style="fill:#000000;fill-opacity:1;stroke:#000000;stroke-opacity:1" />
            <g
               id="g4785">
              <path
                 d="m 224.15285,130.31177 a 86.797356,86.797356 0 1 1 -173.594706,0 86.797356,86.797356 0 1 1 173.594706,0 z"
                 transform="matrix(0.74941633,0,0,0.74941633,25.063546,826.70441)"
                 id="path3874"
                 style="opacity:0.380503;fill:url(#radialGradient4965);fill-opacity:1;stroke:none" />
              <path
                 d="m 224.15285,130.31177 a 86.797356,86.797356 0 1 1 -173.594706,0 86.797356,86.797356 0 1 1 173.594706,0 z"
                 transform="translate(-9.3554993,794.05041)"
                 id="path3772"
                 style="fill:url(#radialGradient4967);fill-opacity:1;stroke:none" />
              <path
                 d="m 170.25,125.125 a 43.375,43.375 0 1 1 -86.75,0 43.375,43.375 0 1 1 86.75,0 z"
                 transform="translate(1.125,801.23718)"
                 id="path3860"
                 style="fill:url(#radialGradient4969);fill-opacity:1;stroke:#ef1d00;stroke-width:1.5;stroke-linecap:round;stroke-linejoin:round;stroke-miterlimit:4;stroke-dasharray:none;stroke-dashoffset:0;stroke-opacity:0" />
              <path
                 d="m 513.35951,120.2355 a 20.152544,20.152544 0 1 1 -40.30508,0 20.152544,20.152544 0 1 1 40.30508,0 z"
                 transform="matrix(1.6843175,0,0,1.6843175,-702.71713,721.84743)"
                 id="path3796"
                 style="fill:url(#radialGradient4971);fill-opacity:1;stroke:none" />
              <path
                 d="m 498.51029,117.9374 a 4.065865,4.065865 0 1 1 -8.13173,0 4.065865,4.065865 0 1 1 8.13173,0 z"
                 transform="matrix(0.86956522,0,0,0.86956522,-301.95168,821.80792)"
                 id="path3818"
                 style="fill:#f4f846;fill-opacity:1;stroke:none" />
            </g>
          </g>
          <g
             id="g4859">
            <g
               id="g4393"
               style="filter:url(#filter4426)">
              <path
                 d="m 98.20252,833.52304 2.12132,8.3085 c 15.36068,-5.88046 45.97986,-3.83259 61.87184,3.71231 l 1.59099,-8.3085 C 143.78528,828.55429 112.399,829.1646 98.20252,833.52304 Z"
                 id="path4007"
                 style="fill:#c9c9bf;fill-opacity:1;stroke:none" />
              <path
                 d="m 58.60454,849.25616 c -13.04121,17.05062 -17.38118,27.71714 -19.09189,37.29989 3.26274,-1.56268 4.80687,-4.56751 6.34116,-7.26083 6.11733,-9.48606 12.36426,-19.07676 21.05923,-25.44286 z"
                 id="path4009"
                 style="fill:url(#linearGradient4973);fill-opacity:1;stroke:none" />
              <path
                 d="m 58.60454,877.71721 11.3137,-8.3085 9.54595,9.36916 -10.78338,4.5962 z"
                 id="path4011"
                 style="opacity:0.537736;fill:url(#linearGradient4975);fill-opacity:1;stroke:none" />
              <path
                 d="m 111.10722,853.49881 c 9.39243,-1.29788 19.13002,-0.86996 28.99137,0.17677 0.56932,2.02341 0.78297,4.40249 0.88389,6.89429 -9.25131,-0.68705 -18.50263,-1.334 -27.75394,-0.17677 -0.425,-2.01599 -1.22929,-4.41128 -2.12132,-6.89429 z"
                 id="path4013"
                 style="opacity:0.537736;fill:#ffffff;fill-opacity:1;stroke:none" />
              <path
                 d="m 178.81269,871.17648 -5.12652,6.54073 c 2.70117,0.95519 6.19764,2.10921 10.78337,3.53554 1.18577,-1.42148 2.82121,-3.29262 4.94975,-5.65686 -2.93649,-1.67282 -6.26255,-3.21578 -10.6066,-4.41941 z"
                 id="path4015"
                 style="fill:#816461;fill-opacity:1;stroke:none" />
              <path
                 d="m 91.66178,896.98587 5.12652,-3.88909 2.2981,3.53554 -3.88909,3.18198 z"
                 id="path4017"
                 style="fill:#f15e4f;fill-opacity:1;stroke:none" />
              <path
                 d="m 118.88539,882.31341 c 5.81338,-0.94098 11.07456,-0.22537 16.44023,0.17677 l -0.35355,3.18198 c -5.24438,-0.1614 -10.48875,-0.5541 -15.73313,0.17678 z"
                 id="path4019"
                 style="fill:#ec4e3e;fill-opacity:1;stroke:none" />
              <path
                 d="m 119.76927,895.21811 c 7.32697,-1.53523 13.82111,-1.00484 19.26866,2.12132 l 1.41422,-2.82843 c -7.72213,-3.49102 -16.3628,-3.26623 -21.38998,-1.59099 z"
                 id="path4021"
                 style="fill:#e66044;fill-opacity:1;stroke:none" />
              <path
                 d="m 160.25114,898.75364 2.12132,-3.0052 -4.94975,-2.2981 -2.65165,2.2981 z"
                 id="path4023"
                 style="fill:url(#linearGradient4977);fill-opacity:1;stroke:none" />
              <path
                 d="m 155.30139,906.70859 c -2.27582,-3.53407 -2.72679,-5.37411 -4.77297,-7.07107 l -1.59099,1.06066 c 2.46956,2.24316 4.48363,4.82793 6.01041,7.77818 z"
                 id="path4025"
                 style="fill:#f74639;fill-opacity:1;stroke:none" />
              <path
                 d="m 132.4972,901.40529 c -2.88735,-0.75674 -5.77471,-0.58908 -8.66206,-0.17678 v -1.94454 c 2.70228,-0.8158 5.54755,-0.77368 8.48528,-0.17678 z"
                 id="path4027"
                 style="fill:#ef4d2b;fill-opacity:1;stroke:none" />
              <path
                 d="m 108.63234,900.52141 c -3.03319,2.75901 -5.03926,5.90318 -6.18718,9.36916 l -1.06066,-1.06066 c 1.17722,-3.76435 2.99712,-7.35399 6.0104,-10.42982 z"
                 id="path4029"
                 style="fill:#eb5241;fill-opacity:1;stroke:none" />
              <path
                 d="m 110.57688,908.47636 1.06067,-2.47488 -2.65166,-1.06066 -1.23743,2.47488 z"
                 id="path4031"
                 style="fill:#f7432e;fill-opacity:1;stroke:none" />
              <path
                 d="m 146.99288,908.29958 1.23744,-1.94454 -2.12132,-1.23744 -1.76777,1.41421 z"
                 id="path4033"
                 style="fill:#f7432e;fill-opacity:1;stroke:none" />
              <path
                 d="m 191.57094,855.65046 4.77297,-4.06587 c 8.44599,4.49145 14.50078,13.36678 20.15255,22.98097 l -2.47488,2.47488 c -7.3081,-7.48088 -14.67726,-14.83965 -22.45064,-21.38998 z"
                 id="path4035"
                 style="fill:url(#linearGradient4979);fill-opacity:1;stroke:none" />
            </g>
            <path
               d="m 128,26.25 c -12.15497,0 -23.81896,2.153186 -34.625,6.0625 l 2.34375,0.15625 C 105.86477,29.075845 116.71287,28.25 128,28.25 c 15.02248,0 29.28979,2.249441 42.125,8.09375 L 173.0625,36.75 C 159.47932,30.02936 144.18114,26.25 128,26.25 Z"
               transform="translate(0,796.36218)"
               id="path4462"
               style="opacity:0.930818;fill:#35373c;fill-opacity:1;stroke:none;filter:url(#filter4487)" />
            <path
               d="M 49.71875,63 C 46.008058,67.46453 42.663152,72.251252 39.75,77.3125 l 0.1875,0.03125 c 1.24315,-2.050869 3.554075,-4.055585 4.931758,-6.00967 1.73058,-2.454631 3.566499,-5.829368 5.505742,-8.11533 z"
               transform="translate(0,796.36218)"
               id="path4469"
               style="opacity:0.393082;fill:#bab7b2;fill-opacity:1;stroke:none;filter:url(#filter4511)" />
          </g>
        </g>
      </g>
    </g>
    <g
       style="font-style:normal;font-variant:normal;font-weight:normal;font-stretch:normal;font-size:50.0751px;line-height:1.25;font-family:Impact;-inkscape-font-specification:'Impact, Normal';font-variant-ligatures:normal;font-variant-caps:normal;font-variant-numeric:normal;font-variant-east-asian:normal;fill:#ffffff;fill-opacity:1;stroke:#000000;stroke-width:2.28286;stroke-miterlimit:4;stroke-dasharray:none;stroke-opacity:1"
       id="text976"
       transform="scale(0.91862202,1.088587)"
       aria-label="TABLE TENNIS  WITH  AI" />
  </g>
</svg>
