<?xml version="1.0" encoding="UTF-8" standalone="no"?>
<svg
   xmlns:dc="http://purl.org/dc/elements/1.1/"
   xmlns:cc="http://creativecommons.org/ns#"
   xmlns:rdf="http://www.w3.org/1999/02/22-rdf-syntax-ns#"
   xmlns:svg="http://www.w3.org/2000/svg"
   xmlns="http://www.w3.org/2000/svg"
   xmlns:xlink="http://www.w3.org/1999/xlink"
   xmlns:sodipodi="http://sodipodi.sourceforge.net/DTD/sodipodi-0.dtd"
   xmlns:inkscape="http://www.inkscape.org/namespaces/inkscape"
   height="250"
   width="274"
   inkscape:version="1.0 (4035a4fb49, 2020-05-01)"
   version="1.1"
   viewBox="0 0 273.99999 249.99999"
   sodipodi:docname="recycle-can.svg"
   id="svg2">
  <defs
     id="defs4">
    <linearGradient
       inkscape:collect="always"
       id="linearGradient3695">
      <stop
         offset="0"
         style="stop-color:#2e3436"
         id="stop3697" />
      <stop
         offset="1"
         style="stop-color:#2e3436;stop-opacity:0"
         id="stop3699" />
    </linearGradient>
    <linearGradient
       inkscape:collect="always"
       id="linearGradient3650">
      <stop
         offset="0"
         style="stop-color:#006533"
         id="stop3652" />
      <stop
         offset="1"
         style="stop-color:#00583f"
         id="stop3654" />
    </linearGradient>
    <linearGradient
       inkscape:collect="always"
       id="linearGradient2844">
      <stop
         offset="0"
         style="stop-color:#007129"
         id="stop2846" />
      <stop
         offset="1"
         style="stop-color:#00583f"
         id="stop2848" />
    </linearGradient>
    <linearGradient
       gradientTransform="translate(-1016,-168)"
       inkscape:collect="always"
       x1="298.57001"
       y1="543.78998"
       x2="307.85999"
       gradientUnits="userSpaceOnUse"
       y2="786.65002"
       id="linearGradient2859">
      <stop
         offset="0"
         style="stop-color:#006e29"
         id="stop2855" />
      <stop
         offset="1"
         style="stop-color:#00892c"
         id="stop2857" />
    </linearGradient>
    <filter
       color-interpolation-filters="sRGB"
       inkscape:collect="always"
       id="filter3685">
      <feGaussianBlur
         inkscape:collect="always"
         stdDeviation="1.8821875"
         id="feGaussianBlur3687" />
    </filter>
    <linearGradient
       gradientTransform="translate(-1016,-168)"
       inkscape:collect="always"
       x1="308.57001"
       y1="438.85999"
       x2="308.57001"
       gradientUnits="userSpaceOnUse"
       xlink:href="#linearGradient2844"
       y2="609.85999"
       id="linearGradient2850" />
    <filter
       inkscape:collect="always"
       x="-0.13781001"
       y="-0.044789001"
       color-interpolation-filters="sRGB"
       width="1.2756"
       height="1.0896"
       id="filter3630">
      <feGaussianBlur
         inkscape:collect="always"
         stdDeviation="0.79176042"
         id="feGaussianBlur3632" />
    </filter>
    <linearGradient
       inkscape:collect="always"
       x1="308.57001"
       y1="438.85999"
       gradientTransform="matrix(1,0,0,-1.2394,-1012,693.71)"
       x2="308.57001"
       gradientUnits="userSpaceOnUse"
       xlink:href="#linearGradient2844"
       y2="609.85999"
       id="linearGradient3636" />
    <linearGradient
       gradientTransform="matrix(1,0,0,-1,-1016,438.2)"
       inkscape:collect="always"
       x1="296.28"
       y1="304.95001"
       x2="318.01999"
       gradientUnits="userSpaceOnUse"
       xlink:href="#linearGradient3650"
       y2="265.35001"
       id="linearGradient3656" />
    <linearGradient
       gradientTransform="translate(-1016,-168)"
       inkscape:collect="always"
       x1="312.57001"
       y1="374.17999"
       x2="312.57001"
       gradientUnits="userSpaceOnUse"
       y2="234.24001"
       id="linearGradient3689">
      <stop
         offset="0"
         style="stop-color:#2e3436"
         id="stop3685" />
      <stop
         offset="1"
         style="stop-color:#2e3436;stop-opacity:0"
         id="stop3687" />
    </linearGradient>
    <linearGradient
       gradientTransform="translate(-1016,-168)"
       inkscape:collect="always"
       x1="158.81"
       y1="492.32999"
       x2="158.81"
       gradientUnits="userSpaceOnUse"
       xlink:href="#linearGradient3695"
       y2="414.76999"
       id="linearGradient3701" />
    <linearGradient
       inkscape:collect="always"
       x1="158.81"
       y1="492.32999"
       gradientTransform="matrix(-1,0,0,1,-397.14,-168.70711)"
       x2="158.81"
       gradientUnits="userSpaceOnUse"
       xlink:href="#linearGradient3695"
       y2="414.76999"
       id="linearGradient3705" />
    <linearGradient
       gradientTransform="translate(-1016,-168)"
       y2="265.35001"
       x2="318.01999"
       y1="304.95001"
       x1="296.28"
       gradientUnits="userSpaceOnUse"
       id="linearGradient879"
       xlink:href="#linearGradient3650"
       inkscape:collect="always" />
    <path
       d="M1.25273437,280.731641 L2.85834533,277.600858 L102.211177,89.0833546 L58.0613266,5.6082033 C54.3920011,-1.28304578 45.0741245,0.473674398 43.8699203,8.18789086 L1.25273437,280.731641 Z"
       id="path-1" />
    <filter
       x="-50%"
       y="-50%"
       width="200%"
       height="200%"
       filterUnits="objectBoundingBox"
       id="filter-2">
      <feGaussianBlur
         stdDeviation="17.5"
         in="SourceAlpha"
         result="shadowBlurInner1"
         id="feGaussianBlur910" />
      <feOffset
         dx="0"
         dy="0"
         in="shadowBlurInner1"
         result="shadowOffsetInner1"
         id="feOffset912" />
      <feComposite
         in="shadowOffsetInner1"
         in2="SourceAlpha"
         operator="arithmetic"
         k2="-1"
         k3="1"
         result="shadowInnerInner1"
         id="feComposite914" />
      <feColorMatrix
         values="0 0 0 0 0   0 0 0 0 0   0 0 0 0 0  0 0 0 0.06 0"
         type="matrix"
         in="shadowInnerInner1"
         id="feColorMatrix916" />
    </filter>
    <path
       d="M134.417103,148.974235 L166.455722,116.161738 L134.417104,55.1546874 C131.374828,49.3635911 123.983911,48.7568362 120.973828,54.5646483 L103.26875,88.6738296 L102.739423,90.4175473 L134.417103,148.974235 Z"
       id="path-3" />
    <filter
       x="-50%"
       y="-50%"
       width="200%"
       height="200%"
       filterUnits="objectBoundingBox"
       id="filter-4">
      <feGaussianBlur
         stdDeviation="3.5"
         in="SourceAlpha"
         result="shadowBlurInner1"
         id="feGaussianBlur920" />
      <feOffset
         dx="1"
         dy="-9"
         in="shadowBlurInner1"
         result="shadowOffsetInner1"
         id="feOffset922" />
      <feComposite
         in="shadowOffsetInner1"
         in2="SourceAlpha"
         operator="arithmetic"
         k2="-1"
         k3="1"
         result="shadowInnerInner1"
         id="feComposite924" />
      <feColorMatrix
         values="0 0 0 0 0   0 0 0 0 0   0 0 0 0 0  0 0 0 0.09 0"
         type="matrix"
         in="shadowInnerInner1"
         id="feColorMatrix926" />
    </filter>
  </defs>
  <sodipodi:namedview
     inkscape:document-rotation="0"
     inkscape:document-units="px"
     inkscape:pageopacity="0.0"
     inkscape:window-width="1920"
     inkscape:cy="168.8641"
     inkscape:cx="180.16381"
     inkscape:current-layer="layer1"
     borderopacity="1.0"
     showgrid="false"
     inkscape:window-x="-9"
     inkscape:zoom="1.4142136"
     inkscape:window-maximized="1"
     inkscape:window-height="1001"
     pagecolor="#ffffff"
     inkscape:window-y="-9"
     inkscape:pageshadow="2"
     bordercolor="#666666"
     id="base" />
  <g
     transform="translate(-124.29,-208.79)"
     inkscape:groupmode="layer"
     inkscape:label="Capa 1"
     id="layer1">
    <g
       id="g1000">
      <g
         transform="translate(49.497474,-2.1213202)"
         id="g938">
        <g
           transform="matrix(0.41348358,0,0,0.38235867,554.52305,205.74543)"
           id="g907">
          <path
             id="path3634"
             sodipodi:nodetypes="ccccccccc"
             style="fill:url(#linearGradient3636)"
             d="m -830.57,216.79 h 254.29 c 20.577,0 31.143,-18.053 37.143,-46.036 l 20,-83.928 c 0,-25.504 -16.566,-46.036 -37.143,-46.036 h -294.29 c -20.577,0 -37.143,20.532 -37.143,46.036 l 20,83.928 c 8,27.363 16.566,46.036 37.143,46.036 z" />
          <path
             id="path3679"
             sodipodi:nodetypes="ccccccccc"
             style="opacity:0.25;fill:url(#linearGradient3689)"
             d="m -815.25,206.18 h 223.64 c 18.097,0 27.389,-15.877 32.666,-40.488 l 17.589,-73.812 c 0,-22.43 -14.569,-40.488 -32.666,-40.488 h -258.82 c -18.097,0 -32.666,18.057 -32.666,40.488 l 17.589,73.812 c 7.0358,24.065 14.569,40.488 32.666,40.488 z" />
          <path
             id="path2819"
             sodipodi:nodetypes="ccccccc"
             style="fill:url(#linearGradient2859)"
             d="m -532.81,330.03 -41.378,291.4 c 0,14.881 -11.98,26.862 -26.862,26.862 h -212.83 c -14.881,0 -26.862,-11.98 -26.862,-26.862 l -42.74,-290.04 350.67,-1.362 z" />
          <path
             id="path2861"
             style="fill:#37a42c"
             d="m -870.74,331.33 -12.75,0.0312 42.75,290.06 c 0,11.836 7.5719,21.844 18.156,25.438 -2.4143,-4.3704 -3.8125,-9.4116 -3.8125,-14.781 l -44.344,-300.75 z" />
          <path
             id="path2875"
             sodipodi:nodetypes="cccscccc"
             style="fill:#37a42c;filter:url(#filter3685)"
             d="m -862.69,332.63 -12.75,0.0312 42.75,290.06 c 0,7.9507 3.0632,17.905 8.5147,22.816 2.6639,2.3997 6.1672,1.442 9.6416,2.6214 -2.4143,-4.3704 -3.8125,-9.4116 -3.8125,-14.781 l -44.344,-300.75 v 5e-5 z" />
          <path
             id="path3709"
             sodipodi:nodetypes="cccscccc"
             style="fill:#37a42c;filter:url(#filter3685)"
             transform="matrix(-1,0,0,1,-397.99,-165.8787)"
             d="m 153.31,500.63 -12.75,0.0312 42.75,290.06 c 0,8.6726 4.0655,16.364 10.403,21.27 2.3114,1.7892 4.2178,1.0863 7.0465,2.0466 -2.4143,-4.3704 -3.1054,-7.2903 -3.1054,-12.66 l -44.344,-300.75 v 5e-5 z" />
          <path
             id="path3707"
             style="fill:#37a42c"
             d="m -543.6,331.33 12.75,0.0312 -42.75,290.06 c 0,11.836 -7.5719,21.844 -18.156,25.438 2.4143,-4.3704 3.8125,-9.4116 3.8125,-14.781 l 44.344,-300.75 z" />
          <path
             id="path2823"
             style="fill:#00892c"
             d="m -890.62,323.69 10.375,70.406 c 6.7593,7.2021 16.385,11.688 27.094,11.688 h 294.31 c 9.9557,0 18.974,-3.8856 25.625,-10.219 l 9.0312,-63.531 c -5.3515,13.922 -18.805,23.75 -34.656,23.75 h -294.31 c -18.866,0 -34.335,-13.918 -36.781,-32.094 h -0.6875 z" />
          <path
             id="path2837"
             sodipodi:nodetypes="ccccccccc"
             style="fill:url(#linearGradient2850)"
             d="m -834.57,216.79 h 254.29 c 20.577,0 31.143,14.566 37.143,37.143 l 20,67.714 c 0,20.577 -16.566,37.143 -37.143,37.143 h -294.29 c -20.577,0 -37.143,-16.566 -37.143,-37.143 l 20,-67.714 c 8,-22.077 16.566,-37.143 37.143,-37.143 z" />
          <path
             id="path3717"
             style="opacity:0.17857;fill:#2e3436"
             d="m -879.34,354.81 8.4062,56.969 c 5.6076,3.3926 12.189,5.3438 19.25,5.3438 h 294.31 c 5.2941,0 10.326,-1.1125 14.875,-3.0938 l 7.7188,-54.562 c -6.2503,4.7926 -14.07,7.6562 -22.594,7.6562 h -294.31 c -11.016,0 -20.873,-4.7451 -27.656,-12.312 z" />
          <path
             id="path2839"
             style="fill:#37a52c"
             d="m -834.06,218.78 c -20.577,0 -29.156,15.079 -37.156,37.156 l -20,67.719 c 0,20.577 16.579,37.125 37.156,37.125 h 294.28 c 20.577,0 37.125,-16.548 37.125,-37.125 l -20,-67.719 c -6,-22.577 -16.548,-37.156 -37.125,-37.156 z m 6.375,2.5 h 243.53 c 19.708,0 29.816,13.757 35.562,35.062 l 19.15,63.91 c 0,19.418 -15.855,35.031 -35.562,35.031 h -281.84 c -19.708,0 -35.594,-15.613 -35.594,-35.031 l 19.156,-63.906 c 7.662,-20.833 15.886,-35.062 35.594,-35.062 z" />
          <path
             d="M -578.55,180.36 -812.73,79.31 c -3.0598,-1.2988 -6.5686,0.11888 -7.8674,3.1786 -1.2988,3.0598 0.11888,6.5686 3.1786,7.8674 l 234.19,101.05 c 3.0598,1.2988 6.5686,-0.11889 7.8674,-3.1786 1.2988,-3.0598 -0.11889,-6.5686 -3.1786,-7.8674 z"
             style="fill:url(#linearGradient879)"
             sodipodi:nodetypes="ccsccsc"
             id="path3648" />
          <path
             d="m -816.06,78.31 c -2.3386,-0.006 -4.5572,1.3927 -5.5312,3.6875 -0.0892,0.21006 -0.15484,0.41157 -0.21875,0.625 1.664,-1.3259 3.9902,-1.7054 6.0938,-0.8125 l 234.19,101.03 c 2.8378,1.2046 4.2506,4.3335 3.4062,7.2188 0.74124,-0.59938 1.3501,-1.4017 1.75,-2.3438 1.2988,-3.0598 -0.0965,-6.5762 -3.1562,-7.875 l -234.19,-101.03 c -0.76494,-0.3247 -1.5642,-0.49807 -2.3438,-0.5 z"
             style="opacity:0.38929;fill:#2e3436"
             id="path3658" />
          <path
             d="m -578.55,89.84 -234.18,101.05 c -3.0598,1.2988 -6.5686,-0.11888 -7.8674,-3.1786 -1.2988,-3.0598 0.11888,-6.5686 3.1786,-7.8674 l 234.19,-101.05 c 3.0598,-1.2988 6.5686,0.11889 7.8674,3.1786 1.2988,3.0598 -0.11889,6.5686 -3.1786,7.8674 z"
             style="fill:url(#linearGradient3656)"
             sodipodi:nodetypes="ccsccsc"
             id="path3673" />
          <path
             d="m -819.19,182.29 c -1.5827,1.7216 -2.048,4.3027 -1.012,6.5702 0.0948,0.20759 0.1992,0.39202 0.31355,0.58323 0.14469,-2.1227 1.4345,-4.0954 3.5131,-5.045 l 232.61,-104.62 c 2.8041,-1.281 6.0664,-0.21182 7.6256,2.3585 0.058,-0.95149 -0.12313,-1.9423 -0.54838,-2.8731 -1.3813,-3.0234 -4.9178,-4.3671 -7.9412,-2.9858 l -232.61,104.62 c -0.75586,0.34531 -1.4232,0.8181 -1.9508,1.392 z"
             style="opacity:0.38929;fill:#2e3436"
             id="path3675" />
          <path
             id="path3693"
             style="opacity:0.25;fill:url(#linearGradient3701)"
             d="m -856.83,353.62 c -9.2018,-2.9784 -16.709,-8.7598 -20.74,-15.972 -2.3966,-4.2879 -4.7158,-11.761 -4.7158,-15.196 0,-3.4583 18.785,-65.742 22.308,-73.962 1.489,-3.4748 3.7672,-8.132 5.0628,-10.349 2.7296,-4.6716 9.0225,-11.761 9.7796,-11.017 0.47365,0.46518 13.004,121.44 13.039,125.89 l 0.0154,1.9445 -10.43,-0.038 c -7.992,-0.0291 -11.339,-0.33226 -14.319,-1.2968 z" />
          <path
             id="path3703"
             style="opacity:0.25;fill:url(#linearGradient3705)"
             d="m -556.31,352.92 c 9.2018,-2.9784 16.709,-8.7598 20.74,-15.972 2.3966,-4.2879 4.7158,-11.761 4.7158,-15.196 0,-3.4583 -18.785,-65.742 -22.308,-73.962 -1.489,-3.4748 -3.7672,-8.132 -5.0628,-10.349 -2.7296,-4.6716 -9.0225,-11.761 -9.7796,-11.017 -0.47365,0.46518 -13.004,121.44 -13.039,125.89 l -0.0154,1.9445 10.43,-0.038 c 7.992,-0.0291 11.339,-0.33226 14.319,-1.2968 z" />
          <path
             id="path3713"
             style="fill:#00892c"
             d="m -890.62,323.69 10.375,70.406 c 6.7593,7.2021 16.385,11.688 27.094,11.688 h 294.31 c 9.9557,0 18.974,-3.8856 25.625,-10.219 l 9.0312,-63.531 c -5.3515,13.922 -18.805,23.75 -34.656,23.75 h -294.31 c -18.866,0 -34.335,-13.918 -36.781,-32.094 h -0.6875 z" />
          <path
             d="m -720.8554,456.3968 -18.7182,32.4324 22.8778,13.19321 14.5586,-25.21758 5.06951,8.96914 -6.04442,3.50966 23.26777,-0.25996 7.73425,-13.06323 4.09461,-6.95443 -6.10941,3.50966 -9.29411,-16.11845 h -37.4364 z m 56.1546,32.4324 -23.07226,13.3232 14.03865,24.69762 -9.55408,0.0651 v -6.75935 l -3.76964,6.75935 -7.66926,13.5187 v 0.0649 l 7.47428,13.19425 3.96462,7.01932 v -7.01932 h 18.58821 l 18.7182,-32.4324 -18.7182,-32.43136 z m -90.40579,12.73877 6.17441,3.57455 -9.3591,16.11845 18.7182,32.4324 h 37.4364 v -26.64743 l -29.1172,0.19487 5.13451,-8.90404 6.10941,3.50967 -11.82886,-20.01808 -23.26777,-0.25997 z"
             style="fill:#d8e8c2;stroke-width:1.0399"
             id="path3494" />
          <path
             id="path2852"
             sodipodi:nodetypes="ccccc"
             style="fill:#2f9d2b;filter:url(#filter3630)"
             d="m -886.25,334.23 c 0,0 8.1317,15.556 22.981,19.445 l 3.182,49.497 c -14.142,1.0607 -19.445,-8.8388 -19.445,-8.8388 l -6.7175,-60.104 z" />
          <path
             id="path2967"
             sodipodi:nodetypes="ccccc"
             style="fill:#2f9d2b;filter:url(#filter3630)"
             transform="matrix(-1,0,0,1,-395.33,-168)"
             d="m 129.75,502.23 c 0,0 8.1317,15.556 22.981,19.445 l 3.182,49.497 c -14.142,1.0607 -19.445,-8.8388 -19.445,-8.8388 l -6.7175,-60.104 z" />
        </g>
        <g
           transform="matrix(0.31566347,0,0,0.3511504,221.83802,211.88366)"
           id="g955">
          <path
             d="M 0,282.99762 2.1225075,280.0256 102.52736,89.511928 102.73942,87.495132 58.478806,4.3581771 C 54.770627,-2.6060418 44.331303,-0.84524577 43.114348,6.9506547 Z"
             fill="#ffc24a"
             id="path931" />
          <g
             id="g937">
            <use
               height="100%"
               width="100%"
               y="0"
               x="0"
               fill="#ffa712"
               fill-rule="evenodd"
               xlink:href="#path-1"
               id="use933" />
            <use
               height="100%"
               width="100%"
               y="0"
               x="0"
               fill="#000000"
               fill-opacity="1"
               filter="url(#filter-2)"
               xlink:href="#path-1"
               id="use935" />
          </g>
          <path
             d="M 135.00497,150.3807 167.9602,116.62946 134.99542,53.699311 c -3.12931,-5.956776 -11.8666,-5.97397 -14.9628,0 l -17.61161,33.588774 v 2.860659 z"
             fill="#f4bd62"
             id="path939" />
          <g
             id="g945">
            <use
               height="100%"
               width="100%"
               y="0"
               x="0"
               fill="#ffa50e"
               fill-rule="evenodd"
               xlink:href="#path-3"
               id="use941" />
            <use
               height="100%"
               width="100%"
               y="0"
               x="0"
               fill="#000000"
               fill-opacity="1"
               filter="url(#filter-4)"
               xlink:href="#path-3"
               id="use943" />
          </g>
          <polygon
             fill="#f6820c"
             points="134.56303,148.1786 102.51312,87.104858 0,282.99762 0.96209717,282.0304 4.4577114,280.60956 132.93532,152.60956 "
             id="polygon947" />
          <path
             d="M 139.12097,347.55127 255.39592,282.70367 222.1917,78.209337 c -1.03865,-6.398089 -8.88804,-8.927522 -13.46739,-4.3399 L 2.5472637e-4,282.99788 115.60845,347.54554 c 7.30619,4.07944 16.20442,4.08135 23.51252,0.006"
             fill="#fde068"
             id="path949" />
          <path
             d="M 254.35408,282.15984 221.40194,79.217937 c -1.03077,-6.349518 -7.55815,-8.976982 -12.10273,-4.424187 L 1.2894531,282.60078 115.62783,346.50946 c 7.25072,4.04847 16.0814,4.05037 23.33402,0.006 z"
             fill="#fcca3f"
             id="path951" />
          <path
             d="m 139.12091,345.64082 c -7.3081,4.07562 -16.20633,4.07371 -23.51252,-0.006 L 0.93134768,282.01455 1.9104478e-4,282.99788 115.60839,347.54554 c 7.30619,4.07944 16.20442,4.08135 23.51252,0.006 l 116.27494,-64.8476 -0.28465,-1.75189 z"
             fill="#eeab37"
             id="path953" />
        </g>
      </g>
      <g
         aria-label="IOT
WASTE
MANAGEMENT"
         transform="scale(0.90025647,1.1107946)"
         id="text942"
         style="font-style:normal;font-variant:normal;font-weight:normal;font-stretch:normal;font-size:47.3197px;line-height:1.25;font-family:Impact;-inkscape-font-specification:'Impact, Normal';font-variant-ligatures:normal;font-variant-caps:normal;font-variant-numeric:normal;font-variant-east-asian:normal;fill:#ffffff;fill-opacity:1;stroke:#000000;stroke-width:2.083;stroke-miterlimit:4;stroke-dasharray:none;stroke-opacity:1">
        <path
           d="m 163.18314,201.14514 v 37.40752 h -9.72734 v -37.40752 z"
           style="stroke-width:2.083;stroke-miterlimit:4;stroke-dasharray:none"
           id="path907" />
        <path
           d="m 189.36147,223.04899 q 0,5.6377 -0.27726,7.99444 -0.25416,2.33364 -1.66359,4.27448 -1.38632,1.94085 -3.76616,2.98059 -2.37985,1.03974 -5.54528,1.03974 -3.00369,0 -5.40665,-0.97042 -2.37984,-0.99353 -3.83548,-2.95749 -1.45564,-1.96395 -1.7329,-4.27448 -0.27726,-2.31053 -0.27726,-8.08686 v -6.40018 q 0,-5.6377 0.25416,-7.97133 0.27726,-2.35675 1.66358,-4.29759 1.40942,-1.94085 3.78927,-2.98059 2.37985,-1.03974 5.54528,-1.03974 3.00369,0 5.38354,0.99353 2.40295,0.97042 3.85859,2.93438 1.45563,1.96395 1.7329,4.27448 0.27726,2.31053 0.27726,8.08686 z m -9.72734,-12.29203 q 0,-2.6109 -0.30037,-3.32717 -0.27726,-0.73937 -1.17837,-0.73937 -0.76248,0 -1.17837,0.60074 -0.39279,0.57763 -0.39279,3.4658 v 17.46762 q 0,3.25785 0.25416,4.02033 0.27726,0.76247 1.24768,0.76247 0.99353,0 1.2708,-0.878 0.27726,-0.878 0.27726,-4.18206 z"
           style="stroke-width:2.083;stroke-miterlimit:4;stroke-dasharray:none"
           id="path909" />
        <path
           d="m 212.60543,201.14514 v 7.48613 h -5.77633 v 29.92139 h -9.72734 v -29.92139 h -5.75323 v -7.48613 z"
           style="stroke-width:2.083;stroke-miterlimit:4;stroke-dasharray:none"
           id="path911" />
        <path
           d="m 190.05463,260.29477 -4.3207,37.40751 h -12.15339 q -1.66359,-8.61828 -2.93438,-19.59331 -0.57763,4.69038 -2.70332,19.59331 h -12.08409 l -4.3438,-37.40751 h 9.45008 l 0.99353,13.0545 1.01663,12.5924 q 0.53143,-9.77355 2.68022,-25.6469 h 10.12013 q 0.20795,1.64047 1.06285,12.33824 l 1.06284,14.20977 q 0.80869,-13.56282 2.70332,-26.54801 z"
           style="stroke-width:2.083;stroke-miterlimit:4;stroke-dasharray:none"
           id="path913" />
        <path
           d="m 208.33094,260.29477 5.56838,37.40751 h -9.95839 l -0.48522,-6.72365 h -3.4889 l -0.57763,6.72365 h -10.07392 l 4.94454,-37.40751 z m -5.15249,24.05264 q -0.73937,-6.35397 -1.47874,-15.68852 -1.47874,10.72087 -1.84843,15.68852 z"
           style="stroke-width:2.083;stroke-miterlimit:4;stroke-dasharray:none"
           id="path915" />
        <path
           d="m 236.17285,271.61637 h -9.03418 v -2.77264 q 0,-1.94084 -0.34658,-2.47226 -0.34658,-0.53143 -1.15527,-0.53143 -0.878,0 -1.34011,0.71627 -0.439,0.71626 -0.439,2.1719 0,1.87153 0.50832,2.81885 0.48521,0.94732 2.74953,2.28742 6.4926,3.85859 8.17929,6.33086 1.68669,2.47227 1.68669,7.97134 0,3.99722 -0.94732,5.89185 -0.92422,1.89464 -3.60443,3.18854 -2.68022,1.27079 -6.23844,1.27079 -3.9048,0 -6.67744,-1.47874 -2.74953,-1.47874 -3.60443,-3.76617 -0.8549,-2.28742 -0.8549,-6.49259 v -2.44917 h 9.03419 v 4.55175 q 0,2.10259 0.36968,2.70333 0.39279,0.60073 1.36321,0.60073 0.97043,0 1.43253,-0.76247 0.48522,-0.76248 0.48522,-2.26432 0,-3.30406 -0.90111,-4.3207 -0.92421,-1.01663 -4.55175,-3.39648 -3.62753,-2.40295 -4.80591,-3.4889 -1.17837,-1.08595 -1.96395,-3.0037 -0.76247,-1.91774 -0.76247,-4.89832 0,-4.29759 1.08595,-6.28465 1.10905,-1.98706 3.55822,-3.09611 2.44916,-1.13217 5.91496,-1.13217 3.78927,0 6.44638,1.22459 2.68022,1.22458 3.53512,3.09611 0.878,1.84843 0.878,6.30775 z"
           style="stroke-width:2.083;stroke-miterlimit:4;stroke-dasharray:none"
           id="path917" />
        <path
           d="m 259.64785,260.29477 v 7.48612 h -5.77633 v 29.92139 h -9.72734 v -29.92139 h -5.75322 v -7.48612 z"
           style="stroke-width:2.083;stroke-miterlimit:4;stroke-dasharray:none"
           id="path919" />
        <path
           d="m 261.86596,260.29477 h 16.21994 v 7.48612 h -6.4926 v 7.09333 h 6.0767 v 7.11644 h -6.0767 v 8.2255 h 7.13955 v 7.48612 h -16.86689 z"
           style="stroke-width:2.083;stroke-miterlimit:4;stroke-dasharray:none"
           id="path921" />
        <path
           d="m 183.46961,319.44439 v 37.40751 h -8.50276 v -25.25411 l -3.39648,25.25411 h -6.03049 l -3.58132,-24.67648 v 24.67648 h -8.50276 v -37.40751 h 12.5924 q 0.55453,3.37338 1.17837,7.94823 l 1.34011,9.51939 2.21811,-17.46762 z"
           style="stroke-width:2.083;stroke-miterlimit:4;stroke-dasharray:none"
           id="path923" />
        <path
           d="m 204.17198,319.44439 5.56839,37.40751 h -9.9584 l -0.48521,-6.72364 h -3.4889 l -0.57764,6.72364 H 185.1563 l 4.94454,-37.40751 z m -5.15248,24.05264 q -0.73937,-6.35397 -1.47874,-15.68852 -1.47875,10.72087 -1.84843,15.68852 z"
           style="stroke-width:2.083;stroke-miterlimit:4;stroke-dasharray:none"
           id="path925" />
        <path
           d="m 233.12295,319.44439 v 37.40751 h -8.52586 l -5.06007,-17.00551 v 17.00551 h -8.13307 v -37.40751 h 8.13307 l 5.45286,16.84378 v -16.84378 z"
           style="stroke-width:2.083;stroke-miterlimit:4;stroke-dasharray:none"
           id="path927" />
        <path
           d="m 253.80221,319.44439 5.56839,37.40751 h -9.9584 l -0.48521,-6.72364 h -3.4889 l -0.57764,6.72364 h -10.07392 l 4.94454,-37.40751 z m -5.15248,24.05264 q -0.73937,-6.35397 -1.47874,-15.68852 -1.47875,10.72087 -1.84843,15.68852 z"
           style="stroke-width:2.083;stroke-miterlimit:4;stroke-dasharray:none"
           id="path929" />
        <path
           d="m 283.35392,333.21516 h -9.72734 v -3.39648 q 0,-3.21164 -0.27727,-4.02033 -0.27726,-0.80868 -1.317,-0.80868 -0.90111,0 -1.22458,0.69316 -0.32348,0.69315 -0.32348,3.55821 v 17.95284 q 0,2.51848 0.32348,3.32717 0.32347,0.78558 1.2939,0.78558 1.06284,0 1.43253,-0.90111 0.39279,-0.90111 0.39279,-3.51201 v -4.43622 h -1.96396 v -5.68391 h 11.39093 v 20.07852 h -6.12291 l -0.90111,-2.68021 q -0.99353,1.7329 -2.51848,2.6109 -1.50185,0.85489 -3.55822,0.85489 -2.44916,0 -4.59796,-1.17837 -2.12569,-1.20147 -3.23474,-2.95748 -1.10906,-1.756 -1.38632,-3.67374 -0.27727,-1.94085 -0.27727,-5.79944 v -11.11366 q 0,-5.36043 0.57764,-7.78649 0.57763,-2.42606 3.30406,-4.43622 2.74953,-2.03327 7.09333,-2.03327 4.27449,0 7.09333,1.756 2.81885,1.75601 3.67375,4.18207 0.8549,2.40295 0.8549,7.00091 z"
           style="stroke-width:2.083;stroke-miterlimit:4;stroke-dasharray:none"
           id="path932" />
        <path
           d="m 287.09697,319.44439 h 16.21994 v 7.48612 h -6.49259 v 7.09334 h 6.07669 v 7.11644 h -6.07669 v 8.22549 h 7.13954 v 7.48612 h -16.86689 z"
           style="stroke-width:2.083;stroke-miterlimit:4;stroke-dasharray:none"
           id="path934" />
        <path
           d="m 336.79653,319.44439 v 37.40751 h -8.50276 v -25.25411 l -3.39648,25.25411 h -6.03049 l -3.58132,-24.67648 v 24.67648 h -8.50276 v -37.40751 h 12.5924 q 0.55453,3.37338 1.17837,7.94823 l 1.34011,9.51939 2.21811,-17.46762 z"
           style="stroke-width:2.083;stroke-miterlimit:4;stroke-dasharray:none"
           id="path936" />
        <path
           d="m 340.70133,319.44439 h 16.21994 v 7.48612 h -6.4926 v 7.09334 h 6.0767 v 7.11644 h -6.0767 v 8.22549 h 7.13954 v 7.48612 h -16.86688 z"
           style="stroke-width:2.083;stroke-miterlimit:4;stroke-dasharray:none"
           id="path938" />
        <path
           d="m 382.10606,319.44439 v 37.40751 h -8.52586 l -5.06007,-17.00551 v 17.00551 h -8.13307 v -37.40751 h 8.13307 l 5.45286,16.84378 v -16.84378 z"
           style="stroke-width:2.083;stroke-miterlimit:4;stroke-dasharray:none"
           id="path940" />
        <path
           d="m 405.58107,319.44439 v 7.48612 h -5.77634 v 29.92139 h -9.72734 v -29.92139 h -5.75322 v -7.48612 z"
           style="stroke-width:2.083;stroke-miterlimit:4;stroke-dasharray:none"
           id="path942" />
      </g>
    </g>
  </g>
  <metadata
     id="metadata53">
    <rdf:RDF>
      <cc:Work>
        <dc:format>image/svg+xml</dc:format>
        <dc:type
           rdf:resource="http://purl.org/dc/dcmitype/StillImage" />
        <cc:license
           rdf:resource="http://creativecommons.org/publicdomain/zero/1.0/" />
        <dc:publisher>
          <cc:Agent
             rdf:about="http://openclipart.org/">
            <dc:title>Openclipart</dc:title>
          </cc:Agent>
        </dc:publisher>
        <dc:title />
        <dc:date>2010-05-16T14:36:31</dc:date>
        <dc:description>the symbol is form mzsinger.</dc:description>
        <dc:source>https://openclipart.org/detail/60451/recycle-can-by-rg1024</dc:source>
        <dc:creator>
          <cc:Agent>
            <dc:title>rg1024</dc:title>
          </cc:Agent>
        </dc:creator>
        <dc:subject>
          <rdf:Bag>
            <rdf:li>can</rdf:li>
            <rdf:li>recycle</rdf:li>
            <rdf:li>trash</rdf:li>
          </rdf:Bag>
        </dc:subject>
      </cc:Work>
      <cc:License
         rdf:about="http://creativecommons.org/publicdomain/zero/1.0/">
        <cc:permits
           rdf:resource="http://creativecommons.org/ns#Reproduction" />
        <cc:permits
           rdf:resource="http://creativecommons.org/ns#Distribution" />
        <cc:permits
           rdf:resource="http://creativecommons.org/ns#DerivativeWorks" />
      </cc:License>
    </rdf:RDF>
  </metadata>
</svg>
