<svg xmlns="http://www.w3.org/2000/svg" width="38" height="56" viewBox="0 0 38 56">
  <g id="css3" transform="translate(-289 -600.147)">
    <g id="icons8-css3" transform="translate(283 595.147)">
      <path id="Path_4" data-name="Path 4" d="M41,5H7l3,34,14,4,14-4L41,5Z" fill="#0277bd"/>
      <path id="Path_5" data-name="Path 5" d="M24,8V39.9l11.2-3.2L37.7,8Z" fill="#039be5"/>
      <path id="Path_6" data-name="Path 6" d="M33.1,13H24v4h4.9l-.3,4H24v4h4.4l-.3,4.5L24,30.9v4.2l7.9-2.6L32.6,21h0Z" fill="#fff"/>
      <path id="Path_7" data-name="Path 7" d="M24,13v4H15.1l-.3-4Zm-4.6,8,.2,4H24V21Zm.4,6h-4l.3,5.5L24,35.1V30.9l-4.1-1.4Z" fill="#eee"/>
    </g>
    <text id="CSS3-2" data-name="CSS3" transform="translate(289 653.147)" fill="#f9f9f9" font-size="18" font-family="Microsoft-Yi-Baiti, Microsoft Yi Baiti" font-style="italic"><tspan x="0" y="0">CSS3</tspan></text>
  </g>
</svg>
