<?xml version="1.0" encoding="UTF-8" standalone="no"?>
<svg
   xmlns:dc="http://purl.org/dc/elements/1.1/"
   xmlns:cc="http://creativecommons.org/ns#"
   xmlns:rdf="http://www.w3.org/1999/02/22-rdf-syntax-ns#"
   xmlns:svg="http://www.w3.org/2000/svg"
   xmlns="http://www.w3.org/2000/svg"
   xmlns:sodipodi="http://sodipodi.sourceforge.net/DTD/sodipodi-0.dtd"
   xmlns:inkscape="http://www.inkscape.org/namespaces/inkscape"
   inkscape:version="1.0 (4035a4fb49, 2020-05-01)"
   sodipodi:docname="email.svg"
   xml:space="preserve"
   style="enable-background:new 0 0 512 512;"
   viewBox="0 0 512 512"
   height="512px"
   width="512px"
   y="0px"
   x="0px"
   id="Capa_1"
   version="1.1"><metadata
   id="metadata41"><rdf:RDF><cc:Work
       rdf:about=""><dc:format>image/svg+xml</dc:format><dc:type
         rdf:resource="http://purl.org/dc/dcmitype/StillImage" /></cc:Work></rdf:RDF></metadata><defs
   id="defs39" /><sodipodi:namedview
   inkscape:current-layer="Capa_1"
   inkscape:window-maximized="1"
   inkscape:window-y="-9"
   inkscape:window-x="-9"
   inkscape:cy="317.27586"
   inkscape:cx="117.01869"
   inkscape:zoom="1.1462864"
   showgrid="false"
   id="namedview37"
   inkscape:window-height="1001"
   inkscape:window-width="1920"
   inkscape:pageshadow="2"
   inkscape:pageopacity="0"
   guidetolerance="10"
   gridtolerance="10"
   objecttolerance="10"
   borderopacity="1"
   bordercolor="#666666"
   pagecolor="#ffffff" />
<g
   transform="matrix(0.86509467,0,0,0.89488237,34.516546,26.364707)"
   style="fill:#e6e6e6;fill-opacity:1;stroke:#e6e6e6;stroke-width:10;stroke-miterlimit:4;stroke-dasharray:none;stroke-opacity:1"
   id="g4">
	<path
   style="fill:#e6e6e6;fill-opacity:1;stroke:#e6e6e6;stroke-width:10;stroke-miterlimit:4;stroke-dasharray:none;stroke-opacity:1"
   id="path2"
   d="M 448,64 H 64 C 28.656,64 0,92.656 0,128 v 256 c 0,35.344 28.656,64 64,64 h 384 c 35.344,0 64,-28.656 64,-64 V 128 C 512,92.656 483.344,64 448,64 Z M 342.656,234.781 478.125,118.687 c 0.938,3 1.875,6 1.875,9.313 v 256 c 0,2.219 -0.844,4.188 -1.281,6.281 z M 448,96 c 2.125,0 4,0.813 6,1.219 L 256,266.938 58,97.219 C 60,96.813 61.875,96 64,96 Z M 33.266,390.25 C 32.828,388.156 32,386.219 32,384 V 128 c 0,-3.313 0.953,-6.313 1.891,-9.313 L 169.313,234.75 Z M 64,416 c -3.234,0 -6.172,-0.938 -9.125,-1.844 l 138.75,-158.563 51.969,44.531 c 2.984,2.595 6.703,3.876 10.406,3.876 3.703,0 7.422,-1.281 10.406,-3.875 l 51.969,-44.531 138.75,158.563 C 454.188,415.062 451.25,416 448,416 Z" />
</g>
<g
   id="g6">
</g>
<g
   id="g8">
</g>
<g
   id="g10">
</g>
<g
   id="g12">
</g>
<g
   id="g14">
</g>
<g
   id="g16">
</g>
<g
   id="g18">
</g>
<g
   id="g20">
</g>
<g
   id="g22">
</g>
<g
   id="g24">
</g>
<g
   id="g26">
</g>
<g
   id="g28">
</g>
<g
   id="g30">
</g>
<g
   id="g32">
</g>
<g
   id="g34">
</g>
</svg>
