<svg xmlns="http://www.w3.org/2000/svg" width="48.943" height="59.5" viewBox="0 0 48.943 59.5">
  <g id="file" transform="translate(11.378 -26)">
    <path id="Path_3" data-name="Path 3" d="M25.8,2H8.845C6.169,2,4,3.788,4,5.993V37.935c0,2.205,2.169,3.993,4.845,3.993H37.918c2.676,0,4.845-1.788,4.845-3.993V15.975Z" transform="translate(-12.878 41.073)" fill="none" stroke="#d4d4d4" stroke-linecap="round" stroke-linejoin="round" stroke-width="5"/>
    <rect id="Rectangle_1" data-name="Rectangle 1" width="37" height="48" transform="translate(-2.114 26)" fill="#333"/>
    <path id="Path_1" data-name="Path 1" d="M23.5,2H8.333A4.173,4.173,0,0,0,4,5.993V37.935a4.173,4.173,0,0,0,4.333,3.993h26a4.173,4.173,0,0,0,4.333-3.993V15.975Z" transform="translate(-3.775 29.073)" fill="none" stroke="#d4d4d4" stroke-linecap="round" stroke-linejoin="round" stroke-width="5"/>
    <path id="Path_2" data-name="Path 2" d="M13,2V18.585H25.887" transform="translate(9.178 31.356)" fill="none" stroke="#d4d4d4" stroke-linecap="round" stroke-linejoin="round" stroke-width="5"/>
  </g>
</svg>
