<?xml version="1.0" encoding="UTF-8" standalone="no"?>
<svg
   xmlns:dc="http://purl.org/dc/elements/1.1/"
   xmlns:cc="http://creativecommons.org/ns#"
   xmlns:rdf="http://www.w3.org/1999/02/22-rdf-syntax-ns#"
   xmlns:svg="http://www.w3.org/2000/svg"
   xmlns="http://www.w3.org/2000/svg"
   xmlns:sodipodi="http://sodipodi.sourceforge.net/DTD/sodipodi-0.dtd"
   xmlns:inkscape="http://www.inkscape.org/namespaces/inkscape"
   inkscape:version="1.0 (4035a4fb49, 2020-05-01)"
   sodipodi:docname="homeicon.svg"
   id="svg8"
   version="1.1"
   viewBox="0 0 27 29"
   height="29"
   width="27">
  <metadata
     id="metadata12">
    <rdf:RDF>
      <cc:Work
         rdf:about="">
        <dc:format>image/svg+xml</dc:format>
        <dc:type
           rdf:resource="http://purl.org/dc/dcmitype/StillImage" />
        <dc:title></dc:title>
      </cc:Work>
    </rdf:RDF>
  </metadata>
  <sodipodi:namedview
     inkscape:current-layer="svg8"
     inkscape:window-maximized="1"
     inkscape:window-y="-9"
     inkscape:window-x="-9"
     inkscape:cy="14.5"
     inkscape:cx="69.5"
     inkscape:zoom="8.6906475"
     showgrid="false"
     id="namedview10"
     inkscape:window-height="1001"
     inkscape:window-width="1920"
     inkscape:pageshadow="2"
     inkscape:pageopacity="0"
     guidetolerance="10"
     gridtolerance="10"
     objecttolerance="10"
     borderopacity="1"
     bordercolor="#666666"
     pagecolor="#ffffff" />
  <defs
     id="defs4">
    <clipPath
       id="clip-path">
      <rect
         y="0"
         x="0"
         fill="#d4d4d4"
         transform="translate(0,0.347)"
         height="29"
         width="139"
         id="tab1" />
    </clipPath>
  </defs>
  <g
     clip-path="url(#clip-path)"
     transform="translate(-55.922185,-0.347)"
     id="homeicon">
    <path
       fill="#d4d4d4"
       transform="translate(56.499,-0.771)"
       d="m 25.142,13.1 v 0 L 14.6,0.812 a 2.148,2.148 0 0 0 -3.364,0 L 0.7,13.091 0.691,13.1 a 3.111,3.111 0 0 0 0,3.915 2.223,2.223 0 0 0 1.578,0.809 0.648,0.648 0 0 0 0.073,0 h 0.42 v 9.041 a 3.045,3.045 0 0 0 2.784,3.245 h 4.129 a 0.827,0.827 0 0 0 0.757,-0.882 v -7.081 a 1.389,1.389 0 0 1 1.27,-1.481 h 2.432 a 1.389,1.389 0 0 1 1.27,1.481 v 7.088 a 0.827,0.827 0 0 0 0.757,0.882 h 4.124 a 3.045,3.045 0 0 0 2.784,-3.245 v -9.04 h 0.39 a 2.208,2.208 0 0 0 1.682,-0.812 3.112,3.112 0 0 0 0,-3.92 z m 0,0"
       id="home" />
  </g>
</svg>
