<?xml version="1.0" encoding="UTF-8" standalone="no"?>
<svg
   xmlns:dc="http://purl.org/dc/elements/1.1/"
   xmlns:cc="http://creativecommons.org/ns#"
   xmlns:rdf="http://www.w3.org/1999/02/22-rdf-syntax-ns#"
   xmlns:svg="http://www.w3.org/2000/svg"
   xmlns="http://www.w3.org/2000/svg"
   xmlns:sodipodi="http://sodipodi.sourceforge.net/DTD/sodipodi-0.dtd"
   xmlns:inkscape="http://www.inkscape.org/namespaces/inkscape"
   aria-label="Research Gate"
   role="img"
   viewBox="0 0 40 40"
   version="1.1"
   id="svg10"
   sodipodi:docname="rg.svg"
   width="40"
   height="40"
   inkscape:version="1.0 (4035a4fb49, 2020-05-01)">
  <metadata
     id="metadata16">
    <rdf:RDF>
      <cc:Work
         rdf:about="">
        <dc:format>image/svg+xml</dc:format>
        <dc:type
           rdf:resource="http://purl.org/dc/dcmitype/StillImage" />
        <dc:title></dc:title>
      </cc:Work>
    </rdf:RDF>
  </metadata>
  <defs
     id="defs14" />
  <sodipodi:namedview
     inkscape:pagecheckerboard="true"
     inkscape:document-rotation="0"
     pagecolor="#ffffff"
     bordercolor="#666666"
     borderopacity="1"
     objecttolerance="10"
     gridtolerance="10"
     guidetolerance="10"
     inkscape:pageopacity="0"
     inkscape:pageshadow="2"
     inkscape:window-width="1920"
     inkscape:window-height="1001"
     id="namedview12"
     showgrid="false"
     inkscape:zoom="9.1702911"
     inkscape:cx="56.915458"
     inkscape:cy="39.553806"
     inkscape:window-x="-9"
     inkscape:window-y="-9"
     inkscape:window-maximized="1"
     inkscape:current-layer="g8" />
  <g
     fill="#feffff"
     id="g8"
     transform="matrix(0.15973701,0,0,0.1508933,-18.697643,-17.686889)"
     style="stroke:#000000;stroke-opacity:1">
    <path
       d="m 271,383 c -15,-4 -23,-10 -36,-26 -9,-12 -26,-39 -35,-53 l -6,-11 h -24 v 34 c 1,43 0,42 19,45 l 10,1 v 4 4 h -80 v -4 c 0,-4 1,-4 9,-6 10,-2 14,-5 15,-14 1,-4 1,-31 1,-79 0,-70 -1,-72 -3,-77 -3,-5 -7,-7 -18,-8 -4,-1 -5,-1 -5,-5 v -4 l 43,-1 c 55,-1 65,0 81,11 15,10 22,24 20,43 -1,21 -17,42 -37,50 -4,1 -7,3 -7,3 0,2 17,28 28,43 15,21 27,32 36,37 4,2 9,3 10,3 3,0 3,1 3,4 0,3 -1,5 -2,5 -5,2 -19,2 -26,0 z M 214,274 c 14,-7 22,-18 23,-35 1,-13 -2,-22 -10,-30 -9,-10 -25,-14 -48,-12 l -10,1 v 39 c 0,36 0,40 2,40 1,0 9,1 18,0 14,0 17,-1 24,-4 z"
       id="path4"
       style="stroke:#000000;stroke-opacity:1;stroke-width:0;stroke-miterlimit:4;stroke-dasharray:none" />
    <path
       d="m 321,228 c -25,-4 -34,-20 -32,-61 1,-21 3,-30 11,-38 7,-7 13,-9 25,-10 13,-1 21,2 29,8 5,4 9,10 9,13 0,1 -3,2 -6,4 l -6,3 -3,-3 c -5,-6 -9,-9 -14,-11 -10,-3 -20,2 -25,11 -3,5 -3,6 -3,29 0,22 0,25 3,29 4,7 12,11 21,10 13,-1 20,-10 20,-24 v -7 h -10 -10 v -13 h 36 v 15 c 0,12 -1,16 -3,22 -6,15 -23,24 -42,22 z"
       id="path6"
       style="stroke:#000000;stroke-opacity:1;stroke-width:0;stroke-miterlimit:4;stroke-dasharray:none" />
  </g>
</svg>
