<svg xmlns="http://www.w3.org/2000/svg" width="55" height="60" viewBox="0 0 55 60">
  <g id="runbtn" transform="translate(55) rotate(90)" fill="#333" stroke-linejoin="round">
    <path d="M 49.89274597167969 50.5 L 10.10725593566895 50.5 C 9.364255905151367 50.5 8.980199813842773 50.03993225097656 8.817411422729492 49.76570129394531 C 8.654611587524414 49.491455078125 8.434621810913086 48.93400192260742 8.790410995483398 48.28172302246094 L 28.68315505981445 11.81168937683105 C 29.05415534973145 11.1315221786499 29.66744422912598 11.02996730804443 30 11.02996730804443 C 30.33255577087402 11.02996730804443 30.94584465026855 11.1315221786499 31.31685638427734 11.81169986724854 L 51.20958709716797 48.28172302246094 C 51.56537628173828 48.93400192260742 51.34540176391602 49.491455078125 51.18259811401367 49.76568984985352 C 51.01979827880859 50.03993225097656 50.63574600219727 50.5 49.89274597167969 50.5 Z" stroke="none"/>
    <path d="M 29.99999618530273 18.79494476318359 L 15.16086959838867 46 L 44.83911514282227 46 L 29.99999618530273 18.79494476318359 M 29.99999809265137 6.529964447021484 C 32.06515884399414 6.529964447021484 34.13031768798828 7.572257995605469 35.26736450195313 9.656848907470703 L 55.16011810302734 46.12688446044922 C 57.34098434448242 50.1251335144043 54.44710159301758 55 49.89274978637695 55 L 10.10725021362305 55 C 5.552898406982422 55 2.659015655517578 50.1251335144043 4.839881896972656 46.12688446044922 L 24.73261642456055 9.656848907470703 C 25.86967468261719 7.572257995605469 27.93483734130859 6.529964447021484 29.99999809265137 6.529964447021484 Z" stroke="none" fill="#71b962"/>
  </g>
</svg>
