<svg xmlns="http://www.w3.org/2000/svg" width="23.697" height="29.483" viewBox="0 0 23.697 29.483">
  <g id="smallfile" transform="translate(11.378 -50.017)">
    <path id="Path_3" data-name="Path 3" d="M13.716,2H6.159A2.165,2.165,0,0,0,4,4.172V21.544a2.165,2.165,0,0,0,2.159,2.172H19.114a2.165,2.165,0,0,0,2.159-2.172V9.6Z" transform="translate(-13.878 54.283)" fill="none" stroke="#d4d4d4" stroke-linecap="round" stroke-linejoin="round" stroke-width="3"/>
    <rect id="Rectangle_1" data-name="Rectangle 1" width="16" height="22" transform="translate(-5.181 50.017)" fill="#1e1e1e"/>
    <path id="Path_1" data-name="Path 1" d="M12.809,2H5.958A2.034,2.034,0,0,0,4,4.1V20.924a2.034,2.034,0,0,0,1.958,2.1H17.7a2.034,2.034,0,0,0,1.958-2.1V9.359Z" transform="translate(-8.842 49.973)" fill="none" stroke="#d4d4d4" stroke-linecap="round" stroke-linejoin="round" stroke-width="3"/>
    <path id="Path_2" data-name="Path 2" d="M13,2V9.824h6.906" transform="translate(-10.889 50.117)" fill="none" stroke="#d4d4d4" stroke-linecap="round" stroke-linejoin="round" stroke-width="3"/>
  </g>
</svg>
