<svg xmlns="http://www.w3.org/2000/svg" width="31" height="36" viewBox="0 0 31 36">
  <g id="smallrunico" transform="translate(31) rotate(90)" fill="#333" stroke-linejoin="round">
    <path d="M 25.57802200317383 28 L 10.42198181152344 28 C 8.856472015380859 28 8.08225154876709 26.94875907897949 7.822052001953125 26.49678993225098 C 7.561851978302002 26.04481887817383 7.041512012481689 24.8474292755127 7.827611923217773 23.49359893798828 L 15.40564155578613 10.44256019592285 C 16.18838119506836 9.094499588012695 17.48071098327637 8.948969841003418 18.00000190734863 8.948969841003418 C 18.5192928314209 8.948969841003418 19.81162261962891 9.094499588012695 20.59436225891113 10.44256019592285 L 28.17239189147949 23.49359893798828 C 28.95849227905273 24.8474292755127 28.43815231323242 26.04481887817383 28.17795181274414 26.49678993225098 C 27.91775131225586 26.94875907897949 27.14353179931641 28 25.57802200317383 28 Z" stroke="none"/>
    <path d="M 18.00000190734863 11.9489688873291 L 10.42198181152344 25 L 25.57803153991699 25.00000953674316 L 18.02453231811523 11.95178031921387 C 18.0221118927002 11.95100021362305 18.01299285888672 11.9489688873291 18.00000190734863 11.9489688873291 M 18.00000190734863 5.948966979980469 C 20.01620101928711 5.948966979980469 22.03240203857422 6.944694519042969 23.1887321472168 8.936149597167969 L 30.76676177978516 21.98719024658203 C 33.08933258056641 25.98716926574707 30.20341110229492 31 25.57802200317383 31 L 10.42198181152344 31 C 5.796592712402344 31 2.910671234130859 25.98716926574707 5.233242034912109 21.98719024658203 L 12.81127166748047 8.936149597167969 C 13.96760177612305 6.944694519042969 15.98380279541016 5.948966979980469 18.00000190734863 5.948966979980469 Z" stroke="none" fill="#71b962"/>
  </g>
</svg>
