<?xml version="1.0" encoding="UTF-8" standalone="no"?>
<svg
   xmlns:dc="http://purl.org/dc/elements/1.1/"
   xmlns:cc="http://creativecommons.org/ns#"
   xmlns:rdf="http://www.w3.org/1999/02/22-rdf-syntax-ns#"
   xmlns:svg="http://www.w3.org/2000/svg"
   xmlns="http://www.w3.org/2000/svg"
   xmlns:sodipodi="http://sodipodi.sourceforge.net/DTD/sodipodi-0.dtd"
   xmlns:inkscape="http://www.inkscape.org/namespaces/inkscape"
   height="30"
   width="40"
   sodipodi:docname="youtubeIco.svg"
   inkscape:version="1.0 (4035a4fb49, 2020-05-01)"
   xml:space="preserve"
   enable-background="new 0 0 400 400"
   viewBox="0 0 40 30"
   y="0px"
   x="0px"
   id="Слой_1"
   version="1.1"><metadata
     id="metadata17"><rdf:RDF><cc:Work
         rdf:about=""><dc:format>image/svg+xml</dc:format><dc:type
           rdf:resource="http://purl.org/dc/dcmitype/StillImage" /><dc:title></dc:title></cc:Work></rdf:RDF></metadata><defs
     id="defs15" /><sodipodi:namedview
     inkscape:pagecheckerboard="true"
     inkscape:document-rotation="0"
     fit-margin-bottom="0"
     fit-margin-right="0"
     fit-margin-left="0"
     fit-margin-top="0"
     inkscape:current-layer="g4189"
     inkscape:window-maximized="1"
     inkscape:window-y="-9"
     inkscape:window-x="-9"
     inkscape:cy="27.623928"
     inkscape:cx="7.8271325"
     inkscape:zoom="4.72"
     showgrid="false"
     id="namedview13"
     inkscape:window-height="1001"
     inkscape:window-width="1920"
     inkscape:pageshadow="2"
     inkscape:pageopacity="0"
     guidetolerance="10"
     gridtolerance="10"
     objecttolerance="10"
     borderopacity="1"
     bordercolor="#666666"
     pagecolor="#ffffff" /><g
     transform="matrix(0.09269068,0,0,0.08262712,-62.288136,2.5423762)"
     id="g4189"><g
       style="stroke-width:0;stroke-miterlimit:4;stroke-dasharray:none"
       id="g4167"
       transform="matrix(8.1299134,0,0,6.5179209,690.69597,-828.14055)"><path
         id="path4156"
         d="m 24.383444,122.33166 c 0,0 -16.2680122,1e-5 -20.3510669,1.61519 -2.1862087,0.92992 -3.98638139,3.67046 -4.59723459,7.04759 -1.06095331,6.21584 -1.06097751,19.08833 -1.06097751,19.08833 0,0 2.42e-5,12.92137 1.06097751,19.0394 0.6108532,3.37707 2.37887509,6.06864 4.59723459,6.99861 4.1152052,1.66409 20.3510669,1.66413 20.3510669,1.66413 0,0 16.300264,0 20.383233,-1.61516 2.218377,-0.92994 3.986363,-3.5726 4.565069,-6.99862 1.093114,-6.16694 1.093145,-19.03937 1.093145,-19.03937 0,0 0.03213,-12.92148 -1.093145,-19.13732 -0.578706,-3.37713 -2.346692,-6.06865 -4.565069,-6.94965 -4.082969,-1.71302 -20.383233,-1.71313 -20.383233,-1.71313 z m -5.176222,15.85801 13.53538,11.8931 -13.53538,11.84415 z"
         style="fill:#ffffff;fill-opacity:1;fill-rule:nonzero;stroke:#000000;stroke-width:0;stroke-opacity:1;stroke-miterlimit:4;stroke-dasharray:none" /></g></g></svg>
